%TF.GenerationSoftware,KiCad,Pcbnew,9.0.0*%
%TF.CreationDate,2025-03-28T21:29:49+02:00*%
%TF.ProjectId,project,70726f6a-6563-4742-9e6b-696361645f70,rev?*%
%TF.SameCoordinates,Original*%
%TF.FileFunction,Copper,L1,Top*%
%TF.FilePolarity,Positive*%
%FSLAX46Y46*%
G04 Gerber Fmt 4.6, Leading zero omitted, Abs format (unit mm)*
G04 Created by KiCad (PCBNEW 9.0.0) date 2025-03-28 21:29:49*
%MOMM*%
%LPD*%
G01*
G04 APERTURE LIST*
G04 Aperture macros list*
%AMRoundRect*
0 Rectangle with rounded corners*
0 $1 Rounding radius*
0 $2 $3 $4 $5 $6 $7 $8 $9 X,Y pos of 4 corners*
0 Add a 4 corners polygon primitive as box body*
4,1,4,$2,$3,$4,$5,$6,$7,$8,$9,$2,$3,0*
0 Add four circle primitives for the rounded corners*
1,1,$1+$1,$2,$3*
1,1,$1+$1,$4,$5*
1,1,$1+$1,$6,$7*
1,1,$1+$1,$8,$9*
0 Add four rect primitives between the rounded corners*
20,1,$1+$1,$2,$3,$4,$5,0*
20,1,$1+$1,$4,$5,$6,$7,0*
20,1,$1+$1,$6,$7,$8,$9,0*
20,1,$1+$1,$8,$9,$2,$3,0*%
%AMFreePoly0*
4,1,23,0.000000,0.745722,0.065263,0.745722,0.191342,0.711940,0.304381,0.646677,0.396677,0.554381,0.461940,0.441342,0.495722,0.315263,0.495722,0.250000,0.500000,0.250000,0.500000,-0.250000,0.495722,-0.250000,0.495722,-0.315263,0.461940,-0.441342,0.396677,-0.554381,0.304381,-0.646677,0.191342,-0.711940,0.065263,-0.745722,0.000000,-0.745722,0.000000,-0.750000,-0.500000,-0.750000,
-0.500000,0.750000,0.000000,0.750000,0.000000,0.745722,0.000000,0.745722,$1*%
%AMFreePoly1*
4,1,23,0.500000,-0.750000,0.000000,-0.750000,0.000000,-0.745722,-0.065263,-0.745722,-0.191342,-0.711940,-0.304381,-0.646677,-0.396677,-0.554381,-0.461940,-0.441342,-0.495722,-0.315263,-0.495722,-0.250000,-0.500000,-0.250000,-0.500000,0.250000,-0.495722,0.250000,-0.495722,0.315263,-0.461940,0.441342,-0.396677,0.554381,-0.304381,0.646677,-0.191342,0.711940,-0.065263,0.745722,0.000000,0.745722,
0.000000,0.750000,0.500000,0.750000,0.500000,-0.750000,0.500000,-0.750000,$1*%
G04 Aperture macros list end*
%TA.AperFunction,Conductor*%
%ADD10C,0.200000*%
%TD*%
%TA.AperFunction,SMDPad,CuDef*%
%ADD11RoundRect,0.150000X0.512500X0.150000X-0.512500X0.150000X-0.512500X-0.150000X0.512500X-0.150000X0*%
%TD*%
%TA.AperFunction,SMDPad,CuDef*%
%ADD12R,3.302000X2.413000*%
%TD*%
%TA.AperFunction,SMDPad,CuDef*%
%ADD13RoundRect,0.075000X-0.225000X0.910000X-0.225000X-0.910000X0.225000X-0.910000X0.225000X0.910000X0*%
%TD*%
%TA.AperFunction,SMDPad,CuDef*%
%ADD14RoundRect,0.160000X0.197500X0.160000X-0.197500X0.160000X-0.197500X-0.160000X0.197500X-0.160000X0*%
%TD*%
%TA.AperFunction,SMDPad,CuDef*%
%ADD15RoundRect,0.160000X-0.160000X0.197500X-0.160000X-0.197500X0.160000X-0.197500X0.160000X0.197500X0*%
%TD*%
%TA.AperFunction,SMDPad,CuDef*%
%ADD16RoundRect,0.160000X-0.197500X-0.160000X0.197500X-0.160000X0.197500X0.160000X-0.197500X0.160000X0*%
%TD*%
%TA.AperFunction,SMDPad,CuDef*%
%ADD17RoundRect,0.060000X-0.545000X-0.180000X0.545000X-0.180000X0.545000X0.180000X-0.545000X0.180000X0*%
%TD*%
%TA.AperFunction,SMDPad,CuDef*%
%ADD18RoundRect,0.250000X0.337500X0.475000X-0.337500X0.475000X-0.337500X-0.475000X0.337500X-0.475000X0*%
%TD*%
%TA.AperFunction,SMDPad,CuDef*%
%ADD19C,2.000000*%
%TD*%
%TA.AperFunction,SMDPad,CuDef*%
%ADD20RoundRect,0.150000X-0.150000X0.512500X-0.150000X-0.512500X0.150000X-0.512500X0.150000X0.512500X0*%
%TD*%
%TA.AperFunction,HeatsinkPad*%
%ADD21R,3.300000X2.100000*%
%TD*%
%TA.AperFunction,SMDPad,CuDef*%
%ADD22RoundRect,0.150000X-0.150000X0.687500X-0.150000X-0.687500X0.150000X-0.687500X0.150000X0.687500X0*%
%TD*%
%TA.AperFunction,ComponentPad*%
%ADD23R,1.500000X1.500000*%
%TD*%
%TA.AperFunction,ComponentPad*%
%ADD24C,1.600000*%
%TD*%
%TA.AperFunction,ComponentPad*%
%ADD25C,3.000000*%
%TD*%
%TA.AperFunction,ComponentPad*%
%ADD26O,3.000000X3.000000*%
%TD*%
%TA.AperFunction,SMDPad,CuDef*%
%ADD27RoundRect,0.250000X0.275000X0.350000X-0.275000X0.350000X-0.275000X-0.350000X0.275000X-0.350000X0*%
%TD*%
%TA.AperFunction,SMDPad,CuDef*%
%ADD28FreePoly0,180.000000*%
%TD*%
%TA.AperFunction,SMDPad,CuDef*%
%ADD29FreePoly1,180.000000*%
%TD*%
%TA.AperFunction,SMDPad,CuDef*%
%ADD30FreePoly1,0.000000*%
%TD*%
%TA.AperFunction,SMDPad,CuDef*%
%ADD31FreePoly0,0.000000*%
%TD*%
%TA.AperFunction,SMDPad,CuDef*%
%ADD32RoundRect,0.237500X-0.237500X0.300000X-0.237500X-0.300000X0.237500X-0.300000X0.237500X0.300000X0*%
%TD*%
%TA.AperFunction,SMDPad,CuDef*%
%ADD33RoundRect,0.155000X0.212500X0.155000X-0.212500X0.155000X-0.212500X-0.155000X0.212500X-0.155000X0*%
%TD*%
%TA.AperFunction,SMDPad,CuDef*%
%ADD34RoundRect,0.155000X-0.212500X-0.155000X0.212500X-0.155000X0.212500X0.155000X-0.212500X0.155000X0*%
%TD*%
%TA.AperFunction,SMDPad,CuDef*%
%ADD35RoundRect,0.155000X-0.155000X0.212500X-0.155000X-0.212500X0.155000X-0.212500X0.155000X0.212500X0*%
%TD*%
%TA.AperFunction,SMDPad,CuDef*%
%ADD36RoundRect,0.237500X0.300000X0.237500X-0.300000X0.237500X-0.300000X-0.237500X0.300000X-0.237500X0*%
%TD*%
%TA.AperFunction,ComponentPad*%
%ADD37R,1.350000X1.350000*%
%TD*%
%TA.AperFunction,ComponentPad*%
%ADD38O,1.350000X1.350000*%
%TD*%
%TA.AperFunction,SMDPad,CuDef*%
%ADD39FreePoly1,270.000000*%
%TD*%
%TA.AperFunction,SMDPad,CuDef*%
%ADD40FreePoly0,270.000000*%
%TD*%
%TA.AperFunction,SMDPad,CuDef*%
%ADD41RoundRect,0.093750X-0.106250X0.093750X-0.106250X-0.093750X0.106250X-0.093750X0.106250X0.093750X0*%
%TD*%
%TA.AperFunction,HeatsinkPad*%
%ADD42R,1.600000X1.000000*%
%TD*%
%TA.AperFunction,SMDPad,CuDef*%
%ADD43RoundRect,0.155000X0.155000X-0.212500X0.155000X0.212500X-0.155000X0.212500X-0.155000X-0.212500X0*%
%TD*%
%TA.AperFunction,SMDPad,CuDef*%
%ADD44RoundRect,0.056250X0.693750X0.168750X-0.693750X0.168750X-0.693750X-0.168750X0.693750X-0.168750X0*%
%TD*%
%TA.AperFunction,SMDPad,CuDef*%
%ADD45R,3.400000X5.000000*%
%TD*%
%TA.AperFunction,ComponentPad*%
%ADD46C,0.300000*%
%TD*%
%TA.AperFunction,SMDPad,CuDef*%
%ADD47RoundRect,0.035000X-0.105000X0.335000X-0.105000X-0.335000X0.105000X-0.335000X0.105000X0.335000X0*%
%TD*%
%TA.AperFunction,SMDPad,CuDef*%
%ADD48R,1.600000X0.900000*%
%TD*%
%TA.AperFunction,ComponentPad*%
%ADD49C,0.400000*%
%TD*%
%TA.AperFunction,SMDPad,CuDef*%
%ADD50RoundRect,0.250000X0.350000X-0.275000X0.350000X0.275000X-0.350000X0.275000X-0.350000X-0.275000X0*%
%TD*%
%TA.AperFunction,ComponentPad*%
%ADD51O,1.700000X1.700000*%
%TD*%
%TA.AperFunction,ComponentPad*%
%ADD52R,1.700000X1.700000*%
%TD*%
%TA.AperFunction,SMDPad,CuDef*%
%ADD53RoundRect,0.100000X0.712500X0.100000X-0.712500X0.100000X-0.712500X-0.100000X0.712500X-0.100000X0*%
%TD*%
%TA.AperFunction,SMDPad,CuDef*%
%ADD54RoundRect,0.035000X0.335000X0.105000X-0.335000X0.105000X-0.335000X-0.105000X0.335000X-0.105000X0*%
%TD*%
%TA.AperFunction,SMDPad,CuDef*%
%ADD55R,0.900000X1.600000*%
%TD*%
%TA.AperFunction,SMDPad,CuDef*%
%ADD56RoundRect,0.056250X0.168750X-0.693750X0.168750X0.693750X-0.168750X0.693750X-0.168750X-0.693750X0*%
%TD*%
%TA.AperFunction,SMDPad,CuDef*%
%ADD57R,5.000000X3.400000*%
%TD*%
%TA.AperFunction,SMDPad,CuDef*%
%ADD58RoundRect,0.175000X-0.425000X0.175000X-0.425000X-0.175000X0.425000X-0.175000X0.425000X0.175000X0*%
%TD*%
%TA.AperFunction,SMDPad,CuDef*%
%ADD59RoundRect,0.190000X0.410000X-0.190000X0.410000X0.190000X-0.410000X0.190000X-0.410000X-0.190000X0*%
%TD*%
%TA.AperFunction,SMDPad,CuDef*%
%ADD60RoundRect,0.200000X0.400000X-0.200000X0.400000X0.200000X-0.400000X0.200000X-0.400000X-0.200000X0*%
%TD*%
%TA.AperFunction,SMDPad,CuDef*%
%ADD61RoundRect,0.175000X0.425000X-0.175000X0.425000X0.175000X-0.425000X0.175000X-0.425000X-0.175000X0*%
%TD*%
%TA.AperFunction,SMDPad,CuDef*%
%ADD62RoundRect,0.190000X-0.410000X0.190000X-0.410000X-0.190000X0.410000X-0.190000X0.410000X0.190000X0*%
%TD*%
%TA.AperFunction,SMDPad,CuDef*%
%ADD63RoundRect,0.200000X-0.400000X0.200000X-0.400000X-0.200000X0.400000X-0.200000X0.400000X0.200000X0*%
%TD*%
%TA.AperFunction,SMDPad,CuDef*%
%ADD64RoundRect,0.250000X-0.425000X0.650000X-0.425000X-0.650000X0.425000X-0.650000X0.425000X0.650000X0*%
%TD*%
%TA.AperFunction,SMDPad,CuDef*%
%ADD65RoundRect,0.250000X-0.500000X0.650000X-0.500000X-0.650000X0.500000X-0.650000X0.500000X0.650000X0*%
%TD*%
%TA.AperFunction,SMDPad,CuDef*%
%ADD66RoundRect,0.160000X0.160000X-0.197500X0.160000X0.197500X-0.160000X0.197500X-0.160000X-0.197500X0*%
%TD*%
%TA.AperFunction,SMDPad,CuDef*%
%ADD67RoundRect,0.160000X-0.160000X0.222500X-0.160000X-0.222500X0.160000X-0.222500X0.160000X0.222500X0*%
%TD*%
%TA.AperFunction,ViaPad*%
%ADD68C,0.600000*%
%TD*%
G04 APERTURE END LIST*
%TO.N,Net-(U8-IN-)*%
D10*
X95500000Y-59500000D02*
X177500000Y-59500000D01*
X177500000Y-119500000D01*
X95500000Y-119500000D01*
X95500000Y-59500000D01*
%TD*%
D11*
%TO.P,U11,1*%
%TO.N,Net-(R15-Pad2)*%
X151137500Y-114450000D03*
%TO.P,U11,2*%
%TO.N,/3V3 Out*%
X151137500Y-113500000D03*
%TO.P,U11,3*%
%TO.N,Net-(R11-Pad2)*%
X151137500Y-112550000D03*
%TO.P,U11,4*%
%TO.N,GND*%
X148862500Y-112550000D03*
%TO.P,U11,5*%
X148862500Y-113500000D03*
%TO.P,U11,6*%
%TO.N,/FAST_CHARGE_CTRL*%
X148862500Y-114450000D03*
%TD*%
D12*
%TO.P,U5,9,EP*%
%TO.N,unconnected-(U5-EP-Pad9)*%
X146500000Y-101500000D03*
D13*
%TO.P,U5,8,CE*%
%TO.N,Net-(JP2-B)*%
X148405000Y-103975000D03*
%TO.P,U5,7,~{CHRG}*%
%TO.N,Net-(U5-~{CHRG})*%
X147135000Y-103975000D03*
%TO.P,U5,6,~{STDBY}*%
%TO.N,Net-(U5-~{STDBY})*%
X145865000Y-103975000D03*
%TO.P,U5,5,BAT*%
%TO.N,/BATT*%
X144595000Y-103975000D03*
%TO.P,U5,4,VCC*%
%TO.N,Net-(JP2-B)*%
X144595000Y-99025000D03*
%TO.P,U5,3,GND*%
%TO.N,GND*%
X145865000Y-99025000D03*
%TO.P,U5,2,PROG*%
%TO.N,Net-(U5-PROG)*%
X147135000Y-99025000D03*
%TO.P,U5,1,TEMP*%
%TO.N,GND*%
X148405000Y-99025000D03*
%TD*%
D14*
%TO.P,R3,2*%
%TO.N,GND*%
X141495000Y-81378700D03*
%TO.P,R3,1*%
%TO.N,Net-(U6-ADJ)*%
X142690000Y-81378700D03*
%TD*%
D15*
%TO.P,R8,2*%
%TO.N,/I2C1_SCL*%
X142000000Y-85195000D03*
%TO.P,R8,1*%
%TO.N,/3V3*%
X142000000Y-84000000D03*
%TD*%
D16*
%TO.P,R9,2*%
%TO.N,/I2C1_SDA*%
X139200000Y-84378700D03*
%TO.P,R9,1*%
%TO.N,/3V3*%
X138005000Y-84378700D03*
%TD*%
D17*
%TO.P,U8,8,A1*%
%TO.N,GND*%
X139710000Y-79378700D03*
%TO.P,U8,7,A0*%
%TO.N,/3V3*%
X139710000Y-80028700D03*
%TO.P,U8,6,SDA*%
%TO.N,/I2C1_SDA*%
X139710000Y-80678700D03*
%TO.P,U8,5,SCL*%
%TO.N,/I2C1_SCL*%
X139710000Y-81328700D03*
%TO.P,U8,4,VS*%
%TO.N,/3V3*%
X137200000Y-81328700D03*
%TO.P,U8,3,GND*%
%TO.N,GND*%
X137200000Y-80678700D03*
%TO.P,U8,2,IN-*%
%TO.N,Net-(U8-IN-)*%
X137200000Y-80028700D03*
%TO.P,U8,1,IN+*%
%TO.N,Net-(U8-IN+)*%
X137200000Y-79378700D03*
%TD*%
D18*
%TO.P,C10,1*%
%TO.N,Net-(JP2-B)*%
X137037500Y-100500000D03*
%TO.P,C10,2*%
%TO.N,GND*%
X134962500Y-100500000D03*
%TD*%
D19*
%TO.P,TP13,1,1*%
%TO.N,/MOTOR2_B_OUT*%
X134500000Y-75500000D03*
%TD*%
D20*
%TO.P,U4,1,FB*%
%TO.N,Net-(JP2-B)*%
X136645000Y-93862500D03*
%TO.P,U4,2,EN*%
%TO.N,/HV*%
X135695000Y-93862500D03*
%TO.P,U4,3,IN*%
X134745000Y-93862500D03*
%TO.P,U4,4,GND*%
%TO.N,GND*%
X134745000Y-96137500D03*
%TO.P,U4,5,SW*%
%TO.N,Net-(U4-SW)*%
X135695000Y-96137500D03*
%TO.P,U4,6,BST*%
%TO.N,Net-(U4-BST)*%
X136645000Y-96137500D03*
%TD*%
D21*
%TO.P,U2,11,GND*%
%TO.N,GND*%
X107500000Y-110000000D03*
D22*
%TO.P,U2,10,PG*%
%TO.N,unconnected-(U2-PG-Pad10)*%
X109500000Y-112637500D03*
%TO.P,U2,9,CFG1*%
%TO.N,GND*%
X108500000Y-112637500D03*
%TO.P,U2,8,VBUS*%
%TO.N,Net-(U2-VBUS)*%
X107500000Y-112637500D03*
%TO.P,U2,7,CC1*%
%TO.N,Net-(J2-CC1)*%
X106500000Y-112637500D03*
%TO.P,U2,6,CC2*%
%TO.N,Net-(J2-CC2)*%
X105500000Y-112637500D03*
%TO.P,U2,5,DM*%
%TO.N,Net-(JP4-B)*%
X105500000Y-107362500D03*
%TO.P,U2,4,DP*%
%TO.N,Net-(JP4-A)*%
X106500000Y-107362500D03*
%TO.P,U2,3,CFG3*%
%TO.N,GND*%
X107500000Y-107362500D03*
%TO.P,U2,2,CFG2*%
X108500000Y-107362500D03*
%TO.P,U2,1,VDD*%
%TO.N,/Battery*%
X109500000Y-107362500D03*
%TD*%
D19*
%TO.P,TP8,1,1*%
%TO.N,/MOTOR4_A_OUT*%
X108500000Y-88500000D03*
%TD*%
%TO.P,TP9,1,1*%
%TO.N,/MOTOR4_B_OUT*%
X110500000Y-82000000D03*
%TD*%
%TO.P,TP10,1,1*%
%TO.N,/MOTOR1_A_OUT*%
X108503000Y-67000000D03*
%TD*%
%TO.P,TP6,1,1*%
%TO.N,/MOTOR3_A_OUT*%
X102500000Y-87000000D03*
%TD*%
D15*
%TO.P,R14,1*%
%TO.N,/EXT_LOAD1_OUT*%
X156195000Y-113305000D03*
%TO.P,R14,2*%
%TO.N,GND*%
X156195000Y-114500000D03*
%TD*%
D23*
%TO.P,SW1,1,B*%
%TO.N,/Battery*%
X137460000Y-115500000D03*
D24*
%TO.P,SW1,2,C*%
%TO.N,unconnected-(SW1-C-Pad2)*%
X134920000Y-115500000D03*
%TO.P,SW1,3,A*%
%TO.N,/BATT*%
X140000000Y-115500000D03*
%TD*%
D16*
%TO.P,R15,1*%
%TO.N,Net-(U5-PROG)*%
X152902500Y-113000000D03*
%TO.P,R15,2*%
%TO.N,Net-(R15-Pad2)*%
X154097500Y-113000000D03*
%TD*%
D25*
%TO.P,R16,1,1*%
%TO.N,/BATT*%
X145650000Y-89500000D03*
D26*
%TO.P,R16,2,2*%
%TO.N,Net-(U8-IN+)*%
X151200000Y-89500000D03*
%TO.P,R16,3,3*%
%TO.N,Net-(U8-IN-)*%
X165500000Y-89500000D03*
%TO.P,R16,4,4*%
%TO.N,/Battery*%
X171050000Y-89500000D03*
%TD*%
D19*
%TO.P,TP7,1,1*%
%TO.N,/MOTOR3_B_OUT*%
X113000000Y-77500000D03*
%TD*%
%TO.P,TP5,1,1*%
%TO.N,Net-(JP2-B)*%
X135000000Y-109500000D03*
%TD*%
D14*
%TO.P,R6,1*%
%TO.N,/5V Out*%
X150097500Y-75500000D03*
%TO.P,R6,2*%
%TO.N,Net-(U7-FB)*%
X148902500Y-75500000D03*
%TD*%
D15*
%TO.P,R11,1*%
%TO.N,Net-(U5-PROG)*%
X145695000Y-113805000D03*
%TO.P,R11,2*%
%TO.N,Net-(R11-Pad2)*%
X145695000Y-115000000D03*
%TD*%
%TO.P,R2,1*%
%TO.N,Net-(U2-VBUS)*%
X106000000Y-115402500D03*
%TO.P,R2,2*%
%TO.N,Net-(J2-VBUS-PadA9)*%
X106000000Y-116597500D03*
%TD*%
D27*
%TO.P,L2,1*%
%TO.N,/Battery*%
X129650000Y-115500000D03*
%TO.P,L2,2*%
%TO.N,Net-(D3-A)*%
X127350000Y-115500000D03*
%TD*%
D28*
%TO.P,JP4,2,B*%
%TO.N,Net-(JP4-B)*%
X104000000Y-100000000D03*
D29*
%TO.P,JP4,1,A*%
%TO.N,Net-(JP4-A)*%
X105300000Y-100000000D03*
%TD*%
%TO.P,JP3,1,A*%
%TO.N,Net-(JP2-B)*%
X140695000Y-108000000D03*
D28*
%TO.P,JP3,2,B*%
%TO.N,Net-(JP3-B)*%
X139395000Y-108000000D03*
%TD*%
D30*
%TO.P,JP1,1,A*%
%TO.N,/BATT*%
X141700000Y-112500000D03*
D31*
%TO.P,JP1,2,B*%
%TO.N,Net-(JP1-B)*%
X143000000Y-112500000D03*
%TD*%
D32*
%TO.P,C14,1*%
%TO.N,/5V Out*%
X128195000Y-108427500D03*
%TO.P,C14,2*%
%TO.N,GND*%
X128195000Y-110152500D03*
%TD*%
D33*
%TO.P,C17,1*%
%TO.N,/5V Out*%
X115000000Y-70000000D03*
%TO.P,C17,2*%
%TO.N,GND*%
X113865000Y-70000000D03*
%TD*%
D34*
%TO.P,C12,1*%
%TO.N,/Battery*%
X104365000Y-71500000D03*
%TO.P,C12,2*%
%TO.N,Net-(U3-VCP)*%
X105500000Y-71500000D03*
%TD*%
D35*
%TO.P,C13,1*%
%TO.N,/3V3 Out*%
X121500000Y-99432500D03*
%TO.P,C13,2*%
%TO.N,GND*%
X121500000Y-100567500D03*
%TD*%
D36*
%TO.P,C15,1*%
%TO.N,/Battery*%
X108682500Y-103542500D03*
%TO.P,C15,2*%
%TO.N,GND*%
X106957500Y-103542500D03*
%TD*%
D35*
%TO.P,C9,1*%
%TO.N,Net-(U4-BST)*%
X139695000Y-97365000D03*
%TO.P,C9,2*%
%TO.N,Net-(U4-SW)*%
X139695000Y-98500000D03*
%TD*%
D33*
%TO.P,C8,1*%
%TO.N,/Battery*%
X117570500Y-74000000D03*
%TO.P,C8,2*%
%TO.N,Net-(U1-VCP)*%
X116435500Y-74000000D03*
%TD*%
D35*
%TO.P,C7,1*%
%TO.N,/HV*%
X110500000Y-100000000D03*
%TO.P,C7,2*%
%TO.N,GND*%
X110500000Y-101135000D03*
%TD*%
D37*
%TO.P,J3,1,Pin_1*%
%TO.N,/BATT*%
X115500000Y-113000000D03*
D38*
%TO.P,J3,2,Pin_2*%
%TO.N,GND*%
X113500000Y-113000000D03*
%TD*%
D39*
%TO.P,JP2,1,A*%
%TO.N,Net-(JP2-A)*%
X135195000Y-103850000D03*
D40*
%TO.P,JP2,2,B*%
%TO.N,Net-(JP2-B)*%
X135195000Y-105150000D03*
%TD*%
D41*
%TO.P,U7,1,VIN*%
%TO.N,/Battery*%
X119195000Y-98500000D03*
%TO.P,U7,2*%
%TO.N,N/C*%
X118545000Y-98500000D03*
%TO.P,U7,3,FB*%
%TO.N,Net-(U7-FB)*%
X117895000Y-98500000D03*
%TO.P,U7,4,EN*%
%TO.N,/Battery*%
X117895000Y-100275000D03*
%TO.P,U7,5,SW*%
%TO.N,Net-(D3-A)*%
X118545000Y-100275000D03*
%TO.P,U7,6,OC*%
%TO.N,Net-(U7-OC)*%
X119195000Y-100275000D03*
D42*
%TO.P,U7,7,GND*%
%TO.N,GND*%
X118545000Y-99387500D03*
%TD*%
D43*
%TO.P,C1,1*%
%TO.N,/Battery*%
X108503000Y-93997600D03*
%TO.P,C1,2*%
%TO.N,GND*%
X108503000Y-92862600D03*
%TD*%
D33*
%TO.P,C5,1*%
%TO.N,GND*%
X101067500Y-69500000D03*
%TO.P,C5,2*%
%TO.N,Net-(U3-VINT)*%
X99932500Y-69500000D03*
%TD*%
D34*
%TO.P,C11,1*%
%TO.N,Net-(JP1-B)*%
X144865000Y-111000000D03*
%TO.P,C11,2*%
%TO.N,GND*%
X146000000Y-111000000D03*
%TD*%
D33*
%TO.P,C4,1*%
%TO.N,GND*%
X103570500Y-92497600D03*
%TO.P,C4,2*%
%TO.N,/Battery*%
X102435500Y-92497600D03*
%TD*%
D44*
%TO.P,U1,1,NSLEEP*%
%TO.N,/Battery*%
X128000000Y-78400000D03*
%TO.P,U1,2,AOUT1*%
%TO.N,/MOTOR1_A_OUT*%
X128000000Y-77750000D03*
%TO.P,U1,3,AISEN*%
%TO.N,GND*%
X128000000Y-77100000D03*
%TO.P,U1,4,AOUT2*%
%TO.N,/MOTOR1_B_OUT*%
X128000000Y-76450000D03*
%TO.P,U1,5,BOUT2*%
%TO.N,/MOTOR2_B_OUT*%
X128000000Y-75800000D03*
%TO.P,U1,6,BISEN*%
%TO.N,GND*%
X128000000Y-75150000D03*
%TO.P,U1,7,BOUT1*%
%TO.N,/MOTOR2_A_OUT*%
X128000000Y-74500000D03*
%TO.P,U1,8,~{NFAULT}*%
%TO.N,unconnected-(U1-~{NFAULT}-Pad8)*%
X128000000Y-73850000D03*
%TO.P,U1,9,BIN1*%
%TO.N,/MOTOR2_CTRL1*%
X122200000Y-73850000D03*
%TO.P,U1,10,BIN2*%
%TO.N,/MOTOR2_CTRL2*%
X122200000Y-74500000D03*
%TO.P,U1,11,VCP*%
%TO.N,Net-(U1-VCP)*%
X122200000Y-75150000D03*
%TO.P,U1,12,VM*%
%TO.N,/Battery*%
X122200000Y-75800000D03*
%TO.P,U1,13,GND*%
%TO.N,GND*%
X122200000Y-76450000D03*
%TO.P,U1,14,VINT*%
%TO.N,Net-(U1-VINT)*%
X122200000Y-77100000D03*
%TO.P,U1,15,AIN2*%
%TO.N,/MOTOR1_CTRL2*%
X122200000Y-77750000D03*
%TO.P,U1,16,AIN1*%
%TO.N,/MOTOR1_CTRL1*%
X122200000Y-78400000D03*
D45*
%TO.P,U1,17,EXP*%
%TO.N,GND*%
X125100000Y-76125000D03*
D46*
%TO.P,U1,18*%
%TO.N,N/C*%
X126100000Y-77925000D03*
%TO.P,U1,19*%
X125100000Y-77925000D03*
%TO.P,U1,20*%
X124100000Y-77925000D03*
%TO.P,U1,21*%
X126100000Y-76725000D03*
%TO.P,U1,22*%
X125100000Y-76725000D03*
%TO.P,U1,23*%
X124100000Y-76725000D03*
%TO.P,U1,24*%
X126100000Y-75525000D03*
%TO.P,U1,25*%
X125100000Y-75525000D03*
%TO.P,U1,26*%
X124100000Y-75525000D03*
%TO.P,U1,27*%
X126100000Y-74325000D03*
%TO.P,U1,28*%
X125100000Y-74325000D03*
%TO.P,U1,29*%
X124100000Y-74325000D03*
%TD*%
D14*
%TO.P,R4,1*%
%TO.N,/3V3 Out*%
X141695000Y-75000000D03*
%TO.P,R4,2*%
%TO.N,Net-(U6-ADJ)*%
X140500000Y-75000000D03*
%TD*%
D47*
%TO.P,U9,1,VIN*%
%TO.N,/5V Out*%
X145500000Y-74000000D03*
%TO.P,U9,2,VIN*%
X145000000Y-74000000D03*
%TO.P,U9,3,ON*%
%TO.N,/CTRL_EXT_LOAD2*%
X144500000Y-74000000D03*
%TO.P,U9,4,VBIAS*%
%TO.N,/5V Out*%
X144000000Y-74000000D03*
%TO.P,U9,5,GND*%
%TO.N,GND*%
X144000000Y-75970000D03*
%TO.P,U9,6,CT*%
%TO.N,unconnected-(U9-CT-Pad6)*%
X144500000Y-75970000D03*
%TO.P,U9,7,VOUT*%
%TO.N,/EXT_LOAD2_OUT*%
X145000000Y-75970000D03*
%TO.P,U9,8,VOUT*%
X145500000Y-75970000D03*
D48*
%TO.P,U9,9,GND*%
%TO.N,GND*%
X144750000Y-74985000D03*
D49*
%TO.P,U9,9_1,GND*%
X145300000Y-74985000D03*
%TO.P,U9,9_2,GND*%
X144200000Y-74985000D03*
%TD*%
D33*
%TO.P,C16,1*%
%TO.N,/5V Out*%
X114500000Y-66500000D03*
%TO.P,C16,2*%
%TO.N,GND*%
X113365000Y-66500000D03*
%TD*%
D50*
%TO.P,L1,1,1*%
%TO.N,Net-(U4-SW)*%
X142195000Y-96162500D03*
%TO.P,L1,2,2*%
%TO.N,Net-(JP2-B)*%
X142195000Y-93862500D03*
%TD*%
D33*
%TO.P,C2,1*%
%TO.N,GND*%
X113503000Y-93497600D03*
%TO.P,C2,2*%
%TO.N,/Battery*%
X112368000Y-93497600D03*
%TD*%
D51*
%TO.P,J1,32,Pin_32*%
%TO.N,/MOTOR1_A_OUT*%
X121060000Y-69540000D03*
%TO.P,J1,31,Pin_31*%
%TO.N,/MOTOR1_B_OUT*%
X121060000Y-67000000D03*
%TO.P,J1,30,Pin_30*%
%TO.N,/MOTOR1_CTRL2*%
X123600000Y-69540000D03*
%TO.P,J1,29,Pin_29*%
%TO.N,/MOTOR3_B_OUT*%
X123600000Y-67000000D03*
%TO.P,J1,28,Pin_28*%
%TO.N,/MOTOR1_CTRL1*%
X126140000Y-69540000D03*
%TO.P,J1,27,Pin_27*%
%TO.N,/MOTOR3_A_OUT*%
X126140000Y-67000000D03*
%TO.P,J1,26,Pin_26*%
%TO.N,/MOTOR3_CTRL2*%
X128680000Y-69540000D03*
%TO.P,J1,25,Pin_25*%
%TO.N,/CTRL_EXT_LOAD1*%
X128680000Y-67000000D03*
%TO.P,J1,24,Pin_24*%
%TO.N,/MOTOR3_CTRL1*%
X131220000Y-69540000D03*
%TO.P,J1,23,Pin_23*%
%TO.N,GND*%
X131220000Y-67000000D03*
%TO.P,J1,22,Pin_22*%
%TO.N,/HV*%
X133760000Y-69540000D03*
%TO.P,J1,21,Pin_21*%
%TO.N,/EXT_LOAD1_OUT*%
X133760000Y-67000000D03*
%TO.P,J1,20,Pin_20*%
%TO.N,/5V Out*%
X136300000Y-69540000D03*
%TO.P,J1,19,Pin_19*%
%TO.N,GND*%
X136300000Y-67000000D03*
%TO.P,J1,18,Pin_18*%
%TO.N,/3V3 Out*%
X138840000Y-69540000D03*
%TO.P,J1,17,Pin_17*%
%TO.N,/I2C1_SDA*%
X138840000Y-67000000D03*
%TO.P,J1,16,Pin_16*%
%TO.N,/I2C1_SCL*%
X141380000Y-69540000D03*
%TO.P,J1,15,Pin_15*%
%TO.N,unconnected-(J1-Pin_15-Pad15)*%
X141380000Y-67000000D03*
%TO.P,J1,14,Pin_14*%
%TO.N,/Battery*%
X143920000Y-69540000D03*
%TO.P,J1,13,Pin_13*%
%TO.N,/FAST_CHARGE_CTRL*%
X143920000Y-67000000D03*
%TO.P,J1,12,Pin_12*%
%TO.N,/USART2_TX*%
X146460000Y-69540000D03*
%TO.P,J1,11,Pin_11*%
%TO.N,/EXT_LOAD2_OUT*%
X146460000Y-67000000D03*
%TO.P,J1,10,Pin_10*%
%TO.N,/MOTOR4_CTRL2*%
X149000000Y-69540000D03*
%TO.P,J1,9,Pin_9*%
%TO.N,/USART2_RX*%
X149000000Y-67000000D03*
%TO.P,J1,8,Pin_8*%
%TO.N,/MOTOR4_CTRL1*%
X151540000Y-69540000D03*
%TO.P,J1,7,Pin_7*%
%TO.N,/CTRL_EXT_LOAD2*%
X151540000Y-67000000D03*
%TO.P,J1,6,Pin_6*%
%TO.N,/MOTOR2_CTRL2*%
X154080000Y-69540000D03*
%TO.P,J1,5,Pin_5*%
%TO.N,/Motor4_B_OUT*%
X154080000Y-67000000D03*
%TO.P,J1,4,Pin_4*%
%TO.N,/MOTOR2_CTRL1*%
X156620000Y-69540000D03*
%TO.P,J1,3,Pin_3*%
%TO.N,/Motor4_A_OUT*%
X156620000Y-67000000D03*
%TO.P,J1,2,Pin_2*%
%TO.N,/Motor2_A_OUT*%
X159160000Y-69540000D03*
D52*
%TO.P,J1,1,Pin_1*%
%TO.N,/Motor2_B_OUT*%
X159160000Y-67000000D03*
%TD*%
D15*
%TO.P,R1,1*%
%TO.N,/Battery*%
X114000000Y-106402500D03*
%TO.P,R1,2*%
%TO.N,Net-(J2-VBUS-PadA9)*%
X114000000Y-107597500D03*
%TD*%
D16*
%TO.P,R13,1*%
%TO.N,Net-(JP3-B)*%
X140805000Y-105000000D03*
%TO.P,R13,2*%
%TO.N,Net-(U5-~{CHRG})*%
X142000000Y-105000000D03*
%TD*%
D53*
%TO.P,U6,1,EN*%
%TO.N,/Battery*%
X155112500Y-98975000D03*
%TO.P,U6,2,IN*%
X155112500Y-98325000D03*
%TO.P,U6,3,OUT*%
%TO.N,/3V3 Out*%
X155112500Y-97675000D03*
%TO.P,U6,4,ADJ*%
%TO.N,Net-(U6-ADJ)*%
X155112500Y-97025000D03*
%TO.P,U6,5,GND*%
%TO.N,GND*%
X150887500Y-97025000D03*
%TO.P,U6,6,GND*%
X150887500Y-97675000D03*
%TO.P,U6,7,GND*%
X150887500Y-98325000D03*
%TO.P,U6,8,GND*%
X150887500Y-98975000D03*
%TD*%
D14*
%TO.P,R7,1*%
%TO.N,Net-(U7-FB)*%
X145190000Y-80378700D03*
%TO.P,R7,2*%
%TO.N,GND*%
X143995000Y-80378700D03*
%TD*%
D19*
%TO.P,TP14,1,1*%
%TO.N,/EXT_LOAD2_OUT*%
X153500000Y-79500000D03*
%TD*%
%TO.P,TP2,1,1*%
%TO.N,/BATT*%
X169500000Y-82000000D03*
%TD*%
%TO.P,TP1,1,1*%
%TO.N,/EXT_LOAD1_OUT*%
X161695000Y-113500000D03*
%TD*%
D14*
%TO.P,R5,1*%
%TO.N,/EXT_LOAD2_OUT*%
X128925000Y-82600000D03*
%TO.P,R5,2*%
%TO.N,GND*%
X127730000Y-82600000D03*
%TD*%
D54*
%TO.P,U10,1,VIN*%
%TO.N,/5V Out*%
X113500000Y-64000000D03*
%TO.P,U10,2,VIN*%
X113500000Y-63500000D03*
%TO.P,U10,3,ON*%
%TO.N,/CTRL_EXT_LOAD1*%
X113500000Y-63000000D03*
%TO.P,U10,4,VBIAS*%
%TO.N,/5V Out*%
X113500000Y-62500000D03*
%TO.P,U10,5,GND*%
%TO.N,GND*%
X111530000Y-62500000D03*
%TO.P,U10,6,CT*%
%TO.N,unconnected-(U10-CT-Pad6)*%
X111530000Y-63000000D03*
%TO.P,U10,7,VOUT*%
%TO.N,/EXT_LOAD1_OUT*%
X111530000Y-63500000D03*
%TO.P,U10,8,VOUT*%
X111530000Y-64000000D03*
D55*
%TO.P,U10,9,GND*%
%TO.N,GND*%
X112515000Y-63250000D03*
D49*
%TO.P,U10,9_1,GND*%
X112515000Y-63800000D03*
%TO.P,U10,9_2,GND*%
X112515000Y-62700000D03*
%TD*%
D19*
%TO.P,TP12,1,1*%
%TO.N,/MOTOR2_A_OUT*%
X130500000Y-73000000D03*
%TD*%
D43*
%TO.P,C3,1*%
%TO.N,GND*%
X111000000Y-92067500D03*
%TO.P,C3,2*%
%TO.N,Net-(U1-VINT)*%
X111000000Y-90932500D03*
%TD*%
D56*
%TO.P,U3,1,NSLEEP*%
%TO.N,/Battery*%
X101925000Y-81900000D03*
%TO.P,U3,2,AOUT1*%
%TO.N,/MOTOR3_A_OUT*%
X102575000Y-81900000D03*
%TO.P,U3,3,AISEN*%
%TO.N,GND*%
X103225000Y-81900000D03*
%TO.P,U3,4,AOUT2*%
%TO.N,/MOTOR3_B_OUT*%
X103875000Y-81900000D03*
%TO.P,U3,5,BOUT2*%
%TO.N,/MOTOR4_B_OUT*%
X104525000Y-81900000D03*
%TO.P,U3,6,BISEN*%
%TO.N,GND*%
X105175000Y-81900000D03*
%TO.P,U3,7,BOUT1*%
%TO.N,/MOTOR4_A_OUT*%
X105825000Y-81900000D03*
%TO.P,U3,8,~{NFAULT}*%
%TO.N,unconnected-(U3-~{NFAULT}-Pad8)*%
X106475000Y-81900000D03*
%TO.P,U3,9,BIN1*%
%TO.N,/MOTOR3_CTRL1*%
X106475000Y-76100000D03*
%TO.P,U3,10,BIN2*%
%TO.N,/MOTOR3_CTRL2*%
X105825000Y-76100000D03*
%TO.P,U3,11,VCP*%
%TO.N,Net-(U3-VCP)*%
X105175000Y-76100000D03*
%TO.P,U3,12,VM*%
%TO.N,/Battery*%
X104525000Y-76100000D03*
%TO.P,U3,13,GND*%
%TO.N,GND*%
X103875000Y-76100000D03*
%TO.P,U3,14,VINT*%
%TO.N,Net-(U3-VINT)*%
X103225000Y-76100000D03*
%TO.P,U3,15,AIN2*%
%TO.N,/MOTOR3_CTRL2*%
X102575000Y-76100000D03*
%TO.P,U3,16,AIN1*%
%TO.N,/MOTOR3_CTRL1*%
X101925000Y-76100000D03*
D57*
%TO.P,U3,17,EXP*%
%TO.N,GND*%
X104200000Y-79000000D03*
D46*
%TO.P,U3,18*%
%TO.N,N/C*%
X102400000Y-80000000D03*
%TO.P,U3,19*%
X102400000Y-79000000D03*
%TO.P,U3,20*%
X102400000Y-78000000D03*
%TO.P,U3,21*%
X103600000Y-80000000D03*
%TO.P,U3,22*%
X103600000Y-79000000D03*
%TO.P,U3,23*%
X103600000Y-78000000D03*
%TO.P,U3,24*%
X104800000Y-80000000D03*
%TO.P,U3,25*%
X104800000Y-79000000D03*
%TO.P,U3,26*%
X104800000Y-78000000D03*
%TO.P,U3,27*%
X106000000Y-80000000D03*
%TO.P,U3,28*%
X106000000Y-79000000D03*
%TO.P,U3,29*%
X106000000Y-78000000D03*
%TD*%
D58*
%TO.P,J2,A5,CC1*%
%TO.N,Net-(J2-CC1)*%
X103032500Y-108500000D03*
D59*
%TO.P,J2,A9,VBUS*%
%TO.N,Net-(J2-VBUS-PadA9)*%
X103032500Y-110520000D03*
D60*
%TO.P,J2,A12,GND*%
%TO.N,GND*%
X103032500Y-111750000D03*
D61*
%TO.P,J2,B5,CC2*%
%TO.N,Net-(J2-CC2)*%
X103032500Y-109500000D03*
D62*
%TO.P,J2,B9,VBUS*%
%TO.N,Net-(J2-VBUS-PadA9)*%
X103032500Y-107480000D03*
D63*
%TO.P,J2,B12,GND*%
%TO.N,GND*%
X103032500Y-106250000D03*
D64*
%TO.P,J2,S1,SHIELD*%
X102977500Y-103875000D03*
D65*
X99397500Y-103875000D03*
D64*
X102977500Y-114125000D03*
D65*
X99397500Y-114125000D03*
%TD*%
D19*
%TO.P,TP11,1,1*%
%TO.N,/MOTOR1_B_OUT*%
X128000000Y-85000000D03*
%TD*%
D66*
%TO.P,R10,1*%
%TO.N,Net-(U7-OC)*%
X120000000Y-103597500D03*
%TO.P,R10,2*%
%TO.N,GND*%
X120000000Y-102402500D03*
%TD*%
D35*
%TO.P,C6,1*%
%TO.N,/Battery*%
X147500000Y-108500000D03*
%TO.P,C6,2*%
%TO.N,GND*%
X147500000Y-109635000D03*
%TD*%
D16*
%TO.P,R12,1*%
%TO.N,Net-(JP2-A)*%
X138500000Y-102000000D03*
%TO.P,R12,2*%
%TO.N,Net-(U5-~{STDBY})*%
X139695000Y-102000000D03*
%TD*%
D67*
%TO.P,D3,1,K*%
%TO.N,/5V Out*%
X128195000Y-102927500D03*
%TO.P,D3,2,A*%
%TO.N,Net-(D3-A)*%
X128195000Y-104072500D03*
%TD*%
D68*
%TO.N,Net-(U8-IN-)*%
X138435000Y-79429200D03*
X137045200Y-84308000D03*
X131862600Y-83922800D03*
X131865300Y-89790800D03*
%TO.N,/MOTOR2_A_OUT*%
X129618000Y-74500000D03*
X130084000Y-79936600D03*
%TO.N,/MOTOR4_B_OUT*%
X114974000Y-59960100D03*
X110500000Y-82000000D03*
X113013000Y-61064600D03*
%TO.N,/MOTOR4_A_OUT*%
X107012000Y-83040300D03*
X113221000Y-92282000D03*
X108580400Y-79177500D03*
X107891200Y-78113100D03*
%TO.N,Net-(U8-IN+)*%
X136075000Y-79899400D03*
X138407500Y-92338500D03*
X150461400Y-92489400D03*
%TO.N,Net-(U5-~{CHRG})*%
X146475700Y-105805200D03*
%TO.N,Net-(U5-PROG)*%
X147017600Y-113805000D03*
X152902500Y-113846700D03*
X149225700Y-98167300D03*
%TO.N,Net-(U7-FB)*%
X136888000Y-98112300D03*
X148025000Y-75630100D03*
X147107000Y-80000100D03*
X138704000Y-99019500D03*
X145451000Y-81229500D03*
%TO.N,Net-(U6-ADJ)*%
X144156000Y-81446000D03*
X146480600Y-95072300D03*
%TO.N,/BATT*%
X138188900Y-101163200D03*
X143525600Y-89500000D03*
X143972400Y-101563000D03*
%TO.N,Net-(J2-VBUS-PadA9)*%
X111365000Y-108518000D03*
X106802000Y-116090000D03*
%TO.N,/MOTOR1_B_OUT*%
X117635000Y-83944200D03*
X130708000Y-76591300D03*
X129779000Y-84826200D03*
%TO.N,/I2C1_SCL*%
X140534000Y-82542700D03*
X141022000Y-85445800D03*
%TO.N,/MOTOR1_CTRL2*%
X120082000Y-77721500D03*
%TO.N,/Motor4_A_OUT*%
X154455000Y-82765600D03*
%TO.N,/MOTOR1_A_OUT*%
X126775000Y-71039800D03*
X129270000Y-77512900D03*
%TO.N,/MOTOR3_A_OUT*%
X116252000Y-67118200D03*
X104754700Y-85212500D03*
%TO.N,/EXT_LOAD1_OUT*%
X134972000Y-113514000D03*
%TO.N,/FAST_CHARGE_CTRL*%
X148307200Y-111744500D03*
%TO.N,/CTRL_EXT_LOAD2*%
X152437000Y-72696600D03*
%TO.N,/I2C1_SDA*%
X138603000Y-80478000D03*
%TO.N,/EXT_LOAD2_OUT*%
X146517000Y-75970000D03*
%TO.N,/MOTOR3_CTRL2*%
X100361000Y-76229000D03*
X105825000Y-74729700D03*
X114688000Y-71778200D03*
%TO.N,/MOTOR1_CTRL1*%
X120690000Y-78400000D03*
%TO.N,/Motor4_B_OUT*%
X113614100Y-84236100D03*
X132644400Y-59960100D03*
%TO.N,/MOTOR3_B_OUT*%
X114922000Y-77849900D03*
%TO.N,/MOTOR3_CTRL1*%
X101197000Y-76315200D03*
X107220000Y-75355400D03*
X131155000Y-72860700D03*
%TO.N,Net-(D3-A)*%
X129460000Y-104072000D03*
X128403000Y-115468000D03*
%TO.N,/5V Out*%
X133245000Y-102919000D03*
X135153000Y-73092700D03*
X114086000Y-64825000D03*
X117236000Y-69821100D03*
X114857000Y-62510700D03*
X144837000Y-72477200D03*
X146204000Y-73298300D03*
%TO.N,/3V3 Out*%
X139964000Y-74100900D03*
X133085000Y-99839900D03*
X140490200Y-92940300D03*
%TO.N,/HV*%
X133439000Y-95168100D03*
%TO.N,Net-(U1-VINT)*%
X118068000Y-77100000D03*
X115553900Y-86995500D03*
%TO.N,/Battery*%
X142323000Y-78400000D03*
X117696000Y-113470000D03*
X117315000Y-106712000D03*
X120192000Y-98474100D03*
X117788000Y-72259000D03*
X117682000Y-74991700D03*
X147077600Y-107604300D03*
%TO.N,GND*%
X141908000Y-77175800D03*
X126194000Y-83012400D03*
X152423100Y-99135900D03*
X150552000Y-106712500D03*
X123398400Y-96137500D03*
%TD*%
D10*
%TO.N,Net-(JP2-A)*%
X137045000Y-102000000D02*
X135195000Y-103850000D01*
X138500000Y-102000000D02*
X137045000Y-102000000D01*
%TO.N,Net-(JP4-A)*%
X105300000Y-105620000D02*
X105300000Y-100000000D01*
X106500000Y-106820000D02*
X105300000Y-105620000D01*
X106500000Y-107362000D02*
X106500000Y-106820000D01*
X106500000Y-107362000D02*
X106500000Y-107362500D01*
%TO.N,Net-(U8-IN-)*%
X137836000Y-80028700D02*
X137200000Y-80028700D01*
X138435000Y-79429200D02*
X137836000Y-80028700D01*
X165500000Y-89500000D02*
X163698300Y-89500000D01*
X161863300Y-91335000D02*
X163698300Y-89500000D01*
X133409500Y-91335000D02*
X161863300Y-91335000D01*
X131865300Y-89790800D02*
X133409500Y-91335000D01*
X132247800Y-84308000D02*
X131862600Y-83922800D01*
X137045200Y-84308000D02*
X132247800Y-84308000D01*
%TO.N,Net-(JP4-B)*%
X104000000Y-105862000D02*
X105500000Y-107362000D01*
X104000000Y-100000000D02*
X104000000Y-105862000D01*
X105500000Y-107362000D02*
X105500000Y-107362500D01*
%TO.N,/MOTOR2_A_OUT*%
X120563000Y-79936600D02*
X120000000Y-80500000D01*
X130084000Y-79936600D02*
X120563000Y-79936600D01*
X129618000Y-74500000D02*
X128000000Y-74500000D01*
%TO.N,/MOTOR4_B_OUT*%
X130102000Y-61064600D02*
X113013000Y-61064600D01*
X131207000Y-59960100D02*
X130102000Y-61064600D01*
X114974000Y-59960100D02*
X131207000Y-59960100D01*
%TO.N,/MOTOR4_A_OUT*%
X107891200Y-78488300D02*
X107891200Y-78113100D01*
X108580400Y-79177500D02*
X107891200Y-78488300D01*
%TO.N,Net-(U8-IN+)*%
X136596000Y-79378700D02*
X137200000Y-79378700D01*
X136075000Y-79899400D02*
X136596000Y-79378700D01*
X150310500Y-92338500D02*
X150461400Y-92489400D01*
X138407500Y-92338500D02*
X150310500Y-92338500D01*
%TO.N,Net-(R15-Pad2)*%
X153160500Y-114450000D02*
X151137500Y-114450000D01*
X154097500Y-113513000D02*
X153160500Y-114450000D01*
X154097500Y-113000000D02*
X154097500Y-113513000D01*
%TO.N,Net-(U5-~{CHRG})*%
X145898400Y-105702500D02*
X146135700Y-105465200D01*
X142702500Y-105702500D02*
X145898400Y-105702500D01*
X142000000Y-105000000D02*
X142702500Y-105702500D01*
X146475700Y-105805200D02*
X146135700Y-105465200D01*
X147135000Y-104465900D02*
X147135000Y-103975000D01*
X146135700Y-105465200D02*
X147135000Y-104465900D01*
%TO.N,Net-(JP3-B)*%
X139395000Y-106410000D02*
X140805000Y-105000000D01*
X139395000Y-108000000D02*
X139395000Y-106410000D01*
%TO.N,Net-(JP1-B)*%
X144500000Y-111000000D02*
X143000000Y-112500000D01*
X144865000Y-111000000D02*
X144500000Y-111000000D01*
%TO.N,Net-(U5-~{STDBY})*%
X140449300Y-102000000D02*
X139695000Y-102000000D01*
X143711300Y-105262000D02*
X140449300Y-102000000D01*
X144993800Y-105262000D02*
X143711300Y-105262000D01*
X145865000Y-104390800D02*
X144993800Y-105262000D01*
X145865000Y-103975000D02*
X145865000Y-104390800D01*
%TO.N,Net-(U5-PROG)*%
X152902500Y-113846700D02*
X152902500Y-113000000D01*
X145695000Y-113805000D02*
X147017600Y-113805000D01*
X148768300Y-97709900D02*
X149225700Y-98167300D01*
X148046600Y-97709900D02*
X148768300Y-97709900D01*
X147135000Y-98621500D02*
X148046600Y-97709900D01*
X147135000Y-99025000D02*
X147135000Y-98621500D01*
%TO.N,Net-(R11-Pad2)*%
X150761600Y-112550000D02*
X151137500Y-112550000D01*
X150036400Y-113275200D02*
X150761600Y-112550000D01*
X150036400Y-114584100D02*
X150036400Y-113275200D01*
X149562400Y-115058100D02*
X150036400Y-114584100D01*
X145753100Y-115058100D02*
X149562400Y-115058100D01*
X145695000Y-115000000D02*
X145753100Y-115058100D01*
%TO.N,Net-(U7-OC)*%
X119195000Y-102792000D02*
X119195000Y-100275000D01*
X120000000Y-103598000D02*
X119195000Y-102792000D01*
%TO.N,/3V3*%
X140378000Y-80028700D02*
X139710000Y-80028700D01*
X140805000Y-80455700D02*
X140378000Y-80028700D01*
X140805000Y-81962300D02*
X140805000Y-80455700D01*
X142000000Y-83157600D02*
X140805000Y-81962300D01*
X142000000Y-84000000D02*
X142000000Y-83157600D01*
X137200000Y-83573700D02*
X138005000Y-84378700D01*
X137200000Y-81328700D02*
X137200000Y-83573700D01*
X138636000Y-85010100D02*
X138005000Y-84378700D01*
X140606000Y-85010100D02*
X138636000Y-85010100D01*
X141617000Y-84000000D02*
X140606000Y-85010100D01*
X142000000Y-84000000D02*
X141617000Y-84000000D01*
%TO.N,Net-(U7-FB)*%
X145569000Y-80000100D02*
X145190000Y-80378700D01*
X147107000Y-80000100D02*
X145569000Y-80000100D01*
X137795000Y-99019500D02*
X138704000Y-99019500D01*
X136888000Y-98112300D02*
X137795000Y-99019500D01*
X145190000Y-80968900D02*
X145190000Y-80378700D01*
X145451000Y-81229500D02*
X145190000Y-80968900D01*
X117895000Y-98287600D02*
X117895000Y-98500000D01*
X118310000Y-97872400D02*
X117895000Y-98287600D01*
X136648000Y-97872400D02*
X118310000Y-97872400D01*
X136888000Y-98112300D02*
X136648000Y-97872400D01*
X148155000Y-75500000D02*
X148025000Y-75630100D01*
X148902000Y-75500000D02*
X148155000Y-75500000D01*
X148902000Y-75500000D02*
X148902500Y-75500000D01*
%TO.N,Net-(U6-ADJ)*%
X142757000Y-81446000D02*
X144156000Y-81446000D01*
X142690000Y-81378700D02*
X142757000Y-81446000D01*
X140583000Y-75000000D02*
X140500000Y-75000000D01*
X142969000Y-77385800D02*
X140583000Y-75000000D01*
X142969000Y-81100100D02*
X142969000Y-77385800D01*
X142690000Y-81378700D02*
X142969000Y-81100100D01*
X153159800Y-95072300D02*
X155112500Y-97025000D01*
X146480600Y-95072300D02*
X153159800Y-95072300D01*
%TO.N,Net-(U2-VBUS)*%
X106000000Y-115402000D02*
X106000000Y-115402500D01*
X107500000Y-113902000D02*
X107500000Y-112638000D01*
X106000000Y-115402000D02*
X107500000Y-113902000D01*
X107500000Y-112638000D02*
X107500000Y-112637500D01*
%TO.N,/BATT*%
X140161000Y-115661000D02*
X140000000Y-115500000D01*
X140000000Y-113150000D02*
X139718000Y-112868000D01*
X140000000Y-115500000D02*
X140000000Y-113150000D01*
X116477000Y-113000000D02*
X115500000Y-113000000D01*
X116608000Y-112868000D02*
X116477000Y-113000000D01*
X139718000Y-112868000D02*
X116608000Y-112868000D01*
X148652000Y-89500000D02*
X145650000Y-89500000D01*
X156152000Y-82000000D02*
X148652000Y-89500000D01*
X169500000Y-82000000D02*
X156152000Y-82000000D01*
X141332000Y-112868000D02*
X139718000Y-112868000D01*
X141700000Y-112500000D02*
X141332000Y-112868000D01*
X145650000Y-89500000D02*
X143525600Y-89500000D01*
X143572600Y-101163200D02*
X143972400Y-101563000D01*
X138188900Y-101163200D02*
X143572600Y-101163200D01*
X143972400Y-103352400D02*
X144595000Y-103975000D01*
X143972400Y-101563000D02*
X143972400Y-103352400D01*
%TO.N,Net-(J2-CC1)*%
X103032000Y-108500000D02*
X103032500Y-108500000D01*
X106500000Y-112127000D02*
X106500000Y-112637500D01*
X105548000Y-111175000D02*
X106500000Y-112127000D01*
X105548000Y-110678000D02*
X105548000Y-111175000D01*
X103370000Y-108500000D02*
X105548000Y-110678000D01*
X103032500Y-108500000D02*
X103370000Y-108500000D01*
X106500000Y-112637500D02*
X106500000Y-112638000D01*
%TO.N,Net-(J2-CC2)*%
X103032000Y-109500000D02*
X103032500Y-109500000D01*
X105147000Y-112284000D02*
X105324000Y-112461000D01*
X105147000Y-111320000D02*
X105147000Y-112284000D01*
X103326000Y-109500000D02*
X105147000Y-111320000D01*
X103032500Y-109500000D02*
X103326000Y-109500000D01*
X105500000Y-112637000D02*
X105500000Y-112637500D01*
X105324000Y-112461000D02*
X105500000Y-112637000D01*
%TO.N,Net-(J2-VBUS-PadA9)*%
X103861000Y-107667000D02*
X103032000Y-107667000D01*
X104712000Y-108518000D02*
X103861000Y-107667000D01*
X111365000Y-108518000D02*
X104712000Y-108518000D01*
X113079000Y-108518000D02*
X113540000Y-108058000D01*
X111365000Y-108518000D02*
X113079000Y-108518000D01*
X103032000Y-107667000D02*
X103032000Y-107574000D01*
X102762000Y-110520000D02*
X103032000Y-110520000D01*
X102126000Y-109885000D02*
X102762000Y-110520000D01*
X102126000Y-108059000D02*
X102126000Y-109885000D01*
X102519000Y-107667000D02*
X102126000Y-108059000D01*
X103032000Y-107667000D02*
X102519000Y-107667000D01*
X103032000Y-110520000D02*
X103032500Y-110520000D01*
X103032000Y-107480500D02*
X103032000Y-107574000D01*
X103032500Y-107480000D02*
X103032000Y-107480500D01*
X106000500Y-116598000D02*
X106000000Y-116598000D01*
X106295000Y-116598000D02*
X106000500Y-116598000D01*
X106802000Y-116090000D02*
X106295000Y-116598000D01*
X106000500Y-116598000D02*
X106000000Y-116597500D01*
X113540000Y-108057500D02*
X113540000Y-108058000D01*
X114000000Y-107597500D02*
X113540000Y-108057500D01*
%TO.N,/MOTOR1_B_OUT*%
X126944000Y-83944200D02*
X128000000Y-85000000D01*
X117635000Y-83944200D02*
X126944000Y-83944200D01*
X128174000Y-84826200D02*
X128000000Y-85000000D01*
X129779000Y-84826200D02*
X128174000Y-84826200D01*
X130566000Y-76450000D02*
X128000000Y-76450000D01*
X130708000Y-76591300D02*
X130566000Y-76450000D01*
%TO.N,/I2C1_SCL*%
X139710000Y-81718500D02*
X139710000Y-81328700D01*
X140534000Y-82542700D02*
X139710000Y-81718500D01*
X141749000Y-85445800D02*
X141022000Y-85445800D01*
X142000000Y-85195000D02*
X141749000Y-85445800D01*
%TO.N,/MOTOR1_CTRL2*%
X120110000Y-77750000D02*
X120082000Y-77721500D01*
X122200000Y-77750000D02*
X120110000Y-77750000D01*
%TO.N,/MOTOR4_A_OUT*%
X106240000Y-83040300D02*
X107012000Y-83040300D01*
X105825000Y-82625600D02*
X106240000Y-83040300D01*
X105825000Y-81900000D02*
X105825000Y-82625600D01*
%TO.N,/Motor4_A_OUT*%
X150711600Y-86509000D02*
X154455000Y-82765600D01*
X116215400Y-86509000D02*
X150711600Y-86509000D01*
X116080300Y-86373900D02*
X116215400Y-86509000D01*
X110626100Y-86373900D02*
X116080300Y-86373900D01*
X108500000Y-88500000D02*
X110626100Y-86373900D01*
%TO.N,/CTRL_EXT_LOAD1*%
X127528000Y-67000000D02*
X128680000Y-67000000D01*
X127528000Y-66731500D02*
X127528000Y-67000000D01*
X123909000Y-63112400D02*
X127528000Y-66731500D01*
X114608000Y-63112400D02*
X123909000Y-63112400D01*
X114495000Y-63000000D02*
X114608000Y-63112400D01*
X113500000Y-63000000D02*
X114495000Y-63000000D01*
%TO.N,/MOTOR2_CTRL1*%
X122757000Y-73292700D02*
X122200000Y-73850000D01*
X130612000Y-73292700D02*
X122757000Y-73292700D01*
X130809000Y-73489700D02*
X130612000Y-73292700D01*
X132218000Y-73489700D02*
X130809000Y-73489700D01*
X135016000Y-70691700D02*
X132218000Y-73489700D01*
X154605000Y-70691700D02*
X135016000Y-70691700D01*
X155468000Y-69828000D02*
X154605000Y-70691700D01*
X155468000Y-69540000D02*
X155468000Y-69828000D01*
X156620000Y-69540000D02*
X155468000Y-69540000D01*
%TO.N,/MOTOR1_A_OUT*%
X119908000Y-69540000D02*
X120484000Y-69540000D01*
X119431000Y-69062800D02*
X119908000Y-69540000D01*
X110566000Y-69062800D02*
X119431000Y-69062800D01*
X108503000Y-67000000D02*
X110566000Y-69062800D01*
X129032000Y-77750000D02*
X129270000Y-77512900D01*
X128000000Y-77750000D02*
X129032000Y-77750000D01*
X121984000Y-71039800D02*
X126775000Y-71039800D01*
X120484000Y-69540000D02*
X121984000Y-71039800D01*
X121060000Y-69540000D02*
X120484000Y-69540000D01*
%TO.N,/MOTOR3_A_OUT*%
X117522000Y-65848300D02*
X116252000Y-67118200D01*
X124125000Y-65848300D02*
X117522000Y-65848300D01*
X124988000Y-66712000D02*
X124125000Y-65848300D01*
X124988000Y-67000000D02*
X124988000Y-66712000D01*
X126140000Y-67000000D02*
X124988000Y-67000000D01*
X102575000Y-86925000D02*
X102575000Y-84139700D01*
X102500000Y-87000000D02*
X102575000Y-86925000D01*
X102575000Y-84139700D02*
X102575000Y-81900000D01*
X103681900Y-84139700D02*
X104754700Y-85212500D01*
X102575000Y-84139700D02*
X103681900Y-84139700D01*
%TO.N,/EXT_LOAD1_OUT*%
X111530000Y-63500000D02*
X111530000Y-64000000D01*
X156865000Y-113500000D02*
X161695000Y-113500000D01*
X156670000Y-113305000D02*
X156865000Y-113500000D01*
X156195000Y-113305000D02*
X156670000Y-113305000D01*
X137488000Y-113514000D02*
X134972000Y-113514000D01*
X138564000Y-114590000D02*
X137488000Y-113514000D01*
X138564000Y-115696000D02*
X138564000Y-114590000D01*
X139472000Y-116604000D02*
X138564000Y-115696000D01*
X155135000Y-116604000D02*
X139472000Y-116604000D01*
X156865000Y-114874000D02*
X155135000Y-116604000D01*
X156865000Y-113500000D02*
X156865000Y-114874000D01*
X110816000Y-63286100D02*
X111530000Y-64000000D01*
X110816000Y-62245500D02*
X110816000Y-63286100D01*
X111153000Y-61909000D02*
X110816000Y-62245500D01*
X128669000Y-61909000D02*
X111153000Y-61909000D01*
X133760000Y-67000000D02*
X128669000Y-61909000D01*
%TO.N,/FAST_CHARGE_CTRL*%
X147858600Y-112193100D02*
X148307200Y-111744500D01*
X147858600Y-113843600D02*
X147858600Y-112193100D01*
X148465000Y-114450000D02*
X147858600Y-113843600D01*
X148862500Y-114450000D02*
X148465000Y-114450000D01*
%TO.N,/Motor2_A_OUT*%
X132295000Y-74500000D02*
X129618000Y-74500000D01*
X135513000Y-71282700D02*
X132295000Y-74500000D01*
X156554000Y-71282700D02*
X135513000Y-71282700D01*
X158008000Y-69827900D02*
X156554000Y-71282700D01*
X158008000Y-69540000D02*
X158008000Y-69827900D01*
X159160000Y-69540000D02*
X158008000Y-69540000D01*
%TO.N,/CTRL_EXT_LOAD2*%
X144500000Y-73558900D02*
X144500000Y-74000000D01*
X144980000Y-73078900D02*
X144500000Y-73558900D01*
X145087000Y-73078900D02*
X144980000Y-73078900D01*
X145277000Y-72888900D02*
X145087000Y-73078900D01*
X145762000Y-72888900D02*
X145277000Y-72888900D01*
X145955000Y-72696600D02*
X145762000Y-72888900D01*
X152437000Y-72696600D02*
X145955000Y-72696600D01*
%TO.N,/I2C1_SDA*%
X138865000Y-80678700D02*
X138834000Y-80709300D01*
X139710000Y-80678700D02*
X138865000Y-80678700D01*
X138799000Y-83978100D02*
X139200000Y-84378700D01*
X138799000Y-80744100D02*
X138799000Y-83978100D01*
X138834000Y-80709300D02*
X138799000Y-80744100D01*
X138834000Y-80709300D02*
X138603000Y-80478000D01*
%TO.N,/EXT_LOAD2_OUT*%
X145000000Y-75970000D02*
X145500000Y-75970000D01*
X149030000Y-79500000D02*
X148920000Y-79389700D01*
X153500000Y-79500000D02*
X149030000Y-79500000D01*
X148920000Y-79389700D02*
X145500000Y-75970000D01*
X146517000Y-75970000D02*
X145500000Y-75970000D01*
X142262000Y-86047500D02*
X148920000Y-79389700D01*
X132372000Y-86047500D02*
X142262000Y-86047500D01*
X128925000Y-82600000D02*
X132372000Y-86047500D01*
%TO.N,/MOTOR3_CTRL2*%
X101542000Y-75048100D02*
X100361000Y-76229000D01*
X102330000Y-75048100D02*
X101542000Y-75048100D01*
X102575000Y-75292700D02*
X102330000Y-75048100D01*
X102575000Y-76100000D02*
X102575000Y-75292700D01*
X105825000Y-76100000D02*
X105825000Y-74729700D01*
X108776000Y-71778200D02*
X114688000Y-71778200D01*
X105825000Y-74729700D02*
X108776000Y-71778200D01*
%TO.N,/MOTOR1_CTRL1*%
X120690000Y-78400000D02*
X122200000Y-78400000D01*
%TO.N,/Motor4_B_OUT*%
X114000000Y-84000000D02*
X113378000Y-84000000D01*
X113624000Y-83623700D02*
X114000000Y-84000000D01*
X112124000Y-83623700D02*
X113624000Y-83623700D01*
X110500000Y-82000000D02*
X112124000Y-83623700D01*
X104525000Y-82705800D02*
X104525000Y-81900000D01*
X105819000Y-84000000D02*
X104525000Y-82705800D01*
X113378000Y-84000000D02*
X105819000Y-84000000D01*
X113378000Y-84000000D02*
X113614100Y-84236100D01*
X132644400Y-59960100D02*
X131207000Y-59960100D01*
X147040000Y-59960100D02*
X132644400Y-59960100D01*
X154080000Y-67000000D02*
X147040000Y-59960100D01*
%TO.N,/MOTOR3_B_OUT*%
X113350000Y-77849900D02*
X114922000Y-77849900D01*
X113000000Y-77500000D02*
X113350000Y-77849900D01*
X103875000Y-82677500D02*
X103875000Y-81900000D01*
X106527000Y-85329200D02*
X103875000Y-82677500D01*
X114533000Y-85329200D02*
X106527000Y-85329200D01*
X115311000Y-84550500D02*
X114533000Y-85329200D01*
X115311000Y-78239700D02*
X115311000Y-84550500D01*
X114922000Y-77849900D02*
X115311000Y-78239700D01*
%TO.N,/MOTOR3_CTRL1*%
X101412000Y-76100000D02*
X101197000Y-76315200D01*
X101925000Y-76100000D02*
X101412000Y-76100000D01*
X106475000Y-76100000D02*
X107220000Y-75355400D01*
X109714000Y-72860700D02*
X107220000Y-75355400D01*
X131155000Y-72860700D02*
X109714000Y-72860700D01*
%TO.N,/Motor2_B_OUT*%
X134200000Y-75800000D02*
X134500000Y-75500000D01*
X128000000Y-75800000D02*
X134200000Y-75800000D01*
X134500000Y-72879300D02*
X134500000Y-75500000D01*
X135504000Y-71875500D02*
X134500000Y-72879300D01*
X158454000Y-71875500D02*
X135504000Y-71875500D01*
X160367000Y-69963100D02*
X158454000Y-71875500D01*
X160367000Y-69070700D02*
X160367000Y-69963100D01*
X159448000Y-68151700D02*
X160367000Y-69070700D01*
X159160000Y-68151700D02*
X159448000Y-68151700D01*
X159160000Y-67000000D02*
X159160000Y-68151700D01*
%TO.N,Net-(D3-A)*%
X128371000Y-115500000D02*
X128403000Y-115468000D01*
X127350000Y-115500000D02*
X128371000Y-115500000D01*
X129460000Y-104072000D02*
X128195000Y-104072000D01*
X118545000Y-103196000D02*
X118545000Y-100275000D01*
X119608000Y-104259000D02*
X118545000Y-103196000D01*
X128009000Y-104259000D02*
X119608000Y-104259000D01*
X128102000Y-104166000D02*
X128009000Y-104259000D01*
X128148500Y-104119000D02*
X128195000Y-104072500D01*
X128195000Y-104072000D02*
X128148500Y-104119000D01*
X128148500Y-104119000D02*
X128102000Y-104166000D01*
X128102000Y-104166000D02*
X128148500Y-104119000D01*
X128148500Y-104119000D02*
X128195000Y-104072000D01*
%TO.N,/5V Out*%
X113500000Y-63500000D02*
X113500000Y-64000000D01*
X128195000Y-102928000D02*
X130096000Y-102928000D01*
X115179000Y-69821100D02*
X115000000Y-70000000D01*
X117236000Y-69821100D02*
X115179000Y-69821100D01*
X113500000Y-64238500D02*
X114086000Y-64825000D01*
X113500000Y-64000000D02*
X113500000Y-64238500D01*
X114086000Y-66086500D02*
X114500000Y-66500000D01*
X114086000Y-64825000D02*
X114086000Y-66086500D01*
X133236000Y-102928000D02*
X133245000Y-102919000D01*
X130096000Y-102928000D02*
X133236000Y-102928000D01*
X114846000Y-62500000D02*
X114857000Y-62510700D01*
X113500000Y-62500000D02*
X114846000Y-62500000D01*
X118050000Y-70000000D02*
X115000000Y-70000000D01*
X119692000Y-71641600D02*
X118050000Y-70000000D01*
X133313000Y-71641600D02*
X119692000Y-71641600D01*
X135148000Y-69805900D02*
X133313000Y-71641600D01*
X135148000Y-69540000D02*
X135148000Y-69805900D01*
X136300000Y-69540000D02*
X135148000Y-69540000D01*
X145000000Y-74000000D02*
X145500000Y-74000000D01*
X146202000Y-73298300D02*
X145500000Y-74000000D01*
X146204000Y-73298300D02*
X146202000Y-73298300D01*
X144000000Y-73092700D02*
X144000000Y-74000000D01*
X135153000Y-73092700D02*
X144000000Y-73092700D01*
X144222000Y-73092700D02*
X144837000Y-72477200D01*
X144000000Y-73092700D02*
X144222000Y-73092700D01*
X130096000Y-106527000D02*
X129145500Y-107477500D01*
X130096000Y-102928000D02*
X130096000Y-106527000D01*
X129145500Y-107477500D02*
X128195000Y-108428000D01*
X129145000Y-107477500D02*
X128195000Y-108427500D01*
X129145500Y-107477500D02*
X129145000Y-107477500D01*
X128195000Y-102927500D02*
X128195000Y-102928000D01*
X148598000Y-74000000D02*
X150098000Y-75499500D01*
X145500000Y-74000000D02*
X148598000Y-74000000D01*
X150097500Y-75500000D02*
X150098000Y-75499500D01*
%TO.N,/3V3 Out*%
X140796000Y-74100900D02*
X139964000Y-74100900D01*
X141695000Y-75000000D02*
X140796000Y-74100900D01*
X121907000Y-99839900D02*
X121500000Y-99432500D01*
X133085000Y-99839900D02*
X121907000Y-99839900D01*
X142738600Y-92940300D02*
X140490200Y-92940300D01*
X146224600Y-96426300D02*
X142738600Y-92940300D01*
X151938500Y-96426300D02*
X146224600Y-96426300D01*
X153187200Y-97675000D02*
X151938500Y-96426300D01*
X155112500Y-97675000D02*
X153187200Y-97675000D01*
%TO.N,Net-(U3-VCP)*%
X105175000Y-71825000D02*
X105500000Y-71500000D01*
X105175000Y-76100000D02*
X105175000Y-71825000D01*
%TO.N,Net-(JP2-B)*%
X136645000Y-93862500D02*
X142195000Y-93862500D01*
X135917000Y-109500000D02*
X136337000Y-109080000D01*
X135000000Y-109500000D02*
X135917000Y-109500000D01*
X136337000Y-106292000D02*
X135195000Y-105150000D01*
X136337000Y-109080000D02*
X136337000Y-106292000D01*
X134760000Y-105150000D02*
X135195000Y-105150000D01*
X134087000Y-104477000D02*
X134760000Y-105150000D01*
X134087000Y-103540000D02*
X134087000Y-104477000D01*
X137126000Y-100500000D02*
X134087000Y-103540000D01*
X137245000Y-100500000D02*
X137126000Y-100500000D01*
X137245000Y-100500000D02*
X137126000Y-100500000D01*
X137126000Y-100500000D02*
X137038000Y-100500000D01*
X137038000Y-100500000D02*
X137037500Y-100500000D01*
X148553600Y-103826400D02*
X148405000Y-103975000D01*
X143113000Y-96659800D02*
X140113900Y-99659100D01*
X143113000Y-94780800D02*
X143113000Y-96659800D01*
X142195000Y-93862500D02*
X143113000Y-94780800D01*
X143960900Y-99659100D02*
X144595000Y-99025000D01*
X140113900Y-99659100D02*
X143960900Y-99659100D01*
X139273000Y-100500000D02*
X137245000Y-100500000D01*
X140113900Y-99659100D02*
X139273000Y-100500000D01*
X140695000Y-108000000D02*
X140695000Y-108229500D01*
X140074000Y-109080000D02*
X136337000Y-109080000D01*
X140695000Y-108459000D02*
X140074000Y-109080000D01*
X140695000Y-108229500D02*
X140695000Y-108459000D01*
X148405000Y-104726800D02*
X148405000Y-103975000D01*
X144902300Y-108229500D02*
X148405000Y-104726800D01*
X140695000Y-108229500D02*
X144902300Y-108229500D01*
%TO.N,Net-(U4-SW)*%
X139858000Y-98500000D02*
X142195000Y-96162500D01*
X139695000Y-98500000D02*
X139858000Y-98500000D01*
X135695000Y-95761600D02*
X135695000Y-96137500D01*
X136333000Y-95123700D02*
X135695000Y-95761600D01*
X141156000Y-95123700D02*
X136333000Y-95123700D01*
X142195000Y-96162500D02*
X141156000Y-95123700D01*
%TO.N,Net-(U4-BST)*%
X137872000Y-97365000D02*
X136645000Y-96137500D01*
X139695000Y-97365000D02*
X137872000Y-97365000D01*
%TO.N,Net-(U1-VCP)*%
X116436000Y-74000000D02*
X117047000Y-73389200D01*
X116741000Y-73694600D02*
X116436000Y-74000000D01*
X116740900Y-73694600D02*
X116435500Y-74000000D01*
X116741000Y-73694600D02*
X116740900Y-73694600D01*
X117074000Y-73361900D02*
X117047000Y-73389200D01*
X119633000Y-73361900D02*
X117074000Y-73361900D01*
X121421000Y-75150000D02*
X119633000Y-73361900D01*
X122200000Y-75150000D02*
X121421000Y-75150000D01*
X117046000Y-73389200D02*
X116741000Y-73694600D01*
X117047000Y-73389200D02*
X117046000Y-73389200D01*
%TO.N,/HV*%
X115332000Y-95168100D02*
X133439000Y-95168100D01*
X110500000Y-100000000D02*
X115332000Y-95168100D01*
X133439000Y-95168100D02*
X134745000Y-93862500D01*
X134745000Y-93862500D02*
X135695000Y-93862500D01*
%TO.N,Net-(U3-VINT)*%
X103225000Y-72792500D02*
X103225000Y-76100000D01*
X99932500Y-69500000D02*
X103225000Y-72792500D01*
%TO.N,Net-(U1-VINT)*%
X122200000Y-77100000D02*
X118068000Y-77100000D01*
X114937000Y-86995500D02*
X115553900Y-86995500D01*
X111000000Y-90932500D02*
X114937000Y-86995500D01*
%TO.N,/Battery*%
X111868000Y-93997600D02*
X108503000Y-93997600D01*
X112368000Y-93497600D02*
X111868000Y-93997600D01*
X114000000Y-103542000D02*
X114000000Y-106402000D01*
X117268000Y-100275000D02*
X114000000Y-103542000D01*
X117895000Y-100275000D02*
X117268000Y-100275000D01*
X127385000Y-79014900D02*
X119054000Y-79014900D01*
X128000000Y-78400000D02*
X127385000Y-79014900D01*
X117445000Y-76845700D02*
X118491000Y-75800000D01*
X117445000Y-77406300D02*
X117445000Y-76845700D01*
X119054000Y-79014900D02*
X117445000Y-77406300D01*
X101953000Y-88365600D02*
X102436000Y-88365600D01*
X101150000Y-87562300D02*
X101953000Y-88365600D01*
X101150000Y-82675000D02*
X101150000Y-87562300D01*
X101925000Y-81900000D02*
X101150000Y-82675000D01*
X142323000Y-78400000D02*
X128000000Y-78400000D01*
X130779000Y-116629000D02*
X129650000Y-115500000D01*
X135411000Y-116629000D02*
X130779000Y-116629000D01*
X136408000Y-115632000D02*
X135411000Y-116629000D01*
X136408000Y-115500000D02*
X136408000Y-115632000D01*
X137460000Y-115500000D02*
X136408000Y-115500000D01*
X127620000Y-113470000D02*
X117696000Y-113470000D01*
X129650000Y-115500000D02*
X127620000Y-113470000D01*
X119221000Y-98474100D02*
X119195000Y-98500000D01*
X120192000Y-98474100D02*
X119221000Y-98474100D01*
X118491000Y-75800000D02*
X122200000Y-75800000D01*
X104525000Y-71660000D02*
X104445000Y-71580000D01*
X104525000Y-76100000D02*
X104525000Y-71660000D01*
X104445000Y-71580000D02*
X104365000Y-71500000D01*
X117682000Y-74991700D02*
X118491000Y-75800000D01*
X103343000Y-88365600D02*
X102436000Y-88365600D01*
X105100000Y-86608500D02*
X103343000Y-88365600D01*
X105100000Y-86134500D02*
X105100000Y-86608500D01*
X105453000Y-85781900D02*
X105100000Y-86134500D01*
X114664000Y-85781900D02*
X105453000Y-85781900D01*
X118439000Y-82006800D02*
X114664000Y-85781900D01*
X118439000Y-79629600D02*
X118439000Y-82006800D01*
X119054000Y-79014900D02*
X118439000Y-79629600D01*
X116410000Y-70881200D02*
X117788000Y-72259000D01*
X105040000Y-70881200D02*
X116410000Y-70881200D01*
X104445000Y-71476100D02*
X105040000Y-70881200D01*
X104445000Y-71580000D02*
X104445000Y-71476100D01*
X102436000Y-88365600D02*
X102436000Y-90431600D01*
X103936000Y-93997600D02*
X108503000Y-93997600D01*
X102436000Y-92497600D02*
X103936000Y-93997600D01*
X102436000Y-90431600D02*
X102436000Y-90432100D01*
X114310000Y-106712000D02*
X114011000Y-106413000D01*
X117315000Y-106712000D02*
X114310000Y-106712000D01*
X117570000Y-74879700D02*
X117570000Y-74439800D01*
X117682000Y-74991700D02*
X117570000Y-74879700D01*
X102436000Y-90431600D02*
X102436000Y-90432100D01*
X102436000Y-90432100D02*
X102436000Y-91464800D01*
X102436000Y-91464800D02*
X102436000Y-92497600D01*
X102436000Y-90432100D02*
X102436000Y-91464800D01*
X102436000Y-91464800D02*
X102436000Y-92497600D01*
X102435500Y-91465300D02*
X102435500Y-92497600D01*
X102436000Y-91464800D02*
X102435500Y-91465300D01*
X155112500Y-98325000D02*
X155112500Y-98975000D01*
X171050000Y-89500000D02*
X169248300Y-89500000D01*
X160423300Y-98325000D02*
X169248300Y-89500000D01*
X155112500Y-98325000D02*
X160423300Y-98325000D01*
X147077600Y-108077600D02*
X147077600Y-107604300D01*
X147500000Y-108500000D02*
X147077600Y-108077600D01*
X114011000Y-106413000D02*
X114005500Y-106407500D01*
X114005500Y-106407500D02*
X114000000Y-106402000D01*
X114011000Y-106413000D02*
X114005500Y-106407500D01*
X114005500Y-106407500D02*
X114000000Y-106402000D01*
X114000500Y-106402500D02*
X114000000Y-106402500D01*
X114005500Y-106407500D02*
X114000500Y-106402500D01*
X117570000Y-74000500D02*
X117570000Y-74439800D01*
X117570500Y-74000000D02*
X117570000Y-74000500D01*
X108682500Y-103542500D02*
X108682500Y-103542000D01*
X114000000Y-103542000D02*
X108682500Y-103542000D01*
X108682500Y-103542000D02*
X108682000Y-103542000D01*
X110460000Y-106402000D02*
X109500000Y-107362000D01*
X114000000Y-106402000D02*
X110460000Y-106402000D01*
X109500000Y-107362000D02*
X109500000Y-107362500D01*
%TO.N,GND*%
X104200000Y-79000000D02*
X104200000Y-80792400D01*
X104844000Y-80792400D02*
X104200000Y-80792400D01*
X105175000Y-81123700D02*
X104844000Y-80792400D01*
X105175000Y-81900000D02*
X105175000Y-81123700D01*
X103225000Y-81121000D02*
X103225000Y-81900000D01*
X103554000Y-80792400D02*
X103225000Y-81121000D01*
X104200000Y-80792400D02*
X103554000Y-80792400D01*
X112515000Y-63250000D02*
X112515000Y-62700000D01*
X112315000Y-62500000D02*
X111530000Y-62500000D01*
X112515000Y-62700000D02*
X112315000Y-62500000D01*
X125648000Y-76599900D02*
X125173000Y-76125000D01*
X125648000Y-76912100D02*
X125648000Y-76599900D01*
X125913000Y-77176700D02*
X125648000Y-76912100D01*
X127923000Y-77176700D02*
X125913000Y-77176700D01*
X128000000Y-77100000D02*
X127923000Y-77176700D01*
X126675000Y-75150000D02*
X128000000Y-75150000D01*
X126550000Y-75025400D02*
X126675000Y-75150000D01*
X125910000Y-75025400D02*
X126550000Y-75025400D01*
X125600000Y-75335100D02*
X125910000Y-75025400D01*
X125600000Y-75698400D02*
X125600000Y-75335100D01*
X125173000Y-76125000D02*
X125600000Y-75698400D01*
X108138000Y-92497600D02*
X108503000Y-92862600D01*
X103570500Y-92497600D02*
X108138000Y-92497600D01*
X140360000Y-79378700D02*
X139710000Y-79378700D01*
X141495000Y-80513700D02*
X140360000Y-79378700D01*
X141495000Y-81378700D02*
X141495000Y-80513700D01*
X114477000Y-113000000D02*
X113500000Y-113000000D01*
X114477000Y-112238000D02*
X114477000Y-113000000D01*
X115873000Y-110842000D02*
X114477000Y-112238000D01*
X128195000Y-110842000D02*
X115873000Y-110842000D01*
X103875000Y-76975200D02*
X103875000Y-76100000D01*
X104200000Y-77300200D02*
X103875000Y-76975200D01*
X104200000Y-79000000D02*
X104200000Y-77300200D01*
X133294000Y-68190600D02*
X132372000Y-67268500D01*
X134246000Y-68190600D02*
X133294000Y-68190600D01*
X135148000Y-67287900D02*
X134246000Y-68190600D01*
X135148000Y-67000000D02*
X135148000Y-67287900D01*
X136300000Y-67000000D02*
X135148000Y-67000000D01*
X132372000Y-67000000D02*
X131220000Y-67000000D01*
X132372000Y-67268500D02*
X132372000Y-67000000D01*
X144000000Y-75185000D02*
X144000000Y-75970000D01*
X144200000Y-74985000D02*
X144000000Y-75185000D01*
X118545000Y-99387500D02*
X120888000Y-99387500D01*
X110500000Y-101135000D02*
X109862000Y-101135000D01*
X112515000Y-63800000D02*
X112515000Y-65308500D01*
X113365000Y-66158500D02*
X113365000Y-66500000D01*
X112515000Y-65308500D02*
X113365000Y-66158500D01*
X108332000Y-65308500D02*
X112515000Y-65308500D01*
X107180000Y-66460800D02*
X108332000Y-65308500D01*
X107180000Y-69500000D02*
X107180000Y-66460800D01*
X113365000Y-69500000D02*
X113865000Y-70000000D01*
X107180000Y-69500000D02*
X113365000Y-69500000D01*
X139148000Y-78816900D02*
X139710000Y-79378700D01*
X136206000Y-78816900D02*
X139148000Y-78816900D01*
X135439000Y-79583800D02*
X136206000Y-78816900D01*
X135439000Y-80678700D02*
X135439000Y-79583800D01*
X129651000Y-80678700D02*
X135439000Y-80678700D01*
X127730000Y-82600000D02*
X129651000Y-80678700D01*
X135439000Y-80678700D02*
X137200000Y-80678700D01*
X113186000Y-93497600D02*
X113503000Y-93497600D01*
X109862000Y-98838200D02*
X109862000Y-101135000D01*
X113186000Y-95514300D02*
X109862000Y-98838200D01*
X113186000Y-93497600D02*
X113186000Y-95514300D01*
X103638000Y-71801300D02*
X103638000Y-69500000D01*
X103875000Y-72038600D02*
X103638000Y-71801300D01*
X103875000Y-76100000D02*
X103875000Y-72038600D01*
X131488000Y-68152200D02*
X132372000Y-67268500D01*
X115017000Y-68152200D02*
X131488000Y-68152200D01*
X113365000Y-66500000D02*
X115017000Y-68152200D01*
X143995000Y-75975000D02*
X143995000Y-80378700D01*
X144000000Y-75970000D02*
X143995000Y-75975000D01*
X142225000Y-82108300D02*
X141495000Y-81378700D01*
X144417000Y-82108300D02*
X142225000Y-82108300D01*
X144767000Y-81758600D02*
X144417000Y-82108300D01*
X144767000Y-81150400D02*
X144767000Y-81758600D01*
X143995000Y-80378700D02*
X144767000Y-81150400D01*
X134325000Y-100181000D02*
X134325000Y-100500000D01*
X132906000Y-98762700D02*
X134325000Y-100181000D01*
X121156000Y-98762700D02*
X132906000Y-98762700D01*
X120888000Y-99030600D02*
X121156000Y-98762700D01*
X120888000Y-99387500D02*
X120888000Y-99030600D01*
X128774000Y-77100000D02*
X128000000Y-77100000D01*
X128994000Y-76880400D02*
X128774000Y-77100000D01*
X129922000Y-76880400D02*
X128994000Y-76880400D01*
X130272000Y-77230300D02*
X129922000Y-76880400D01*
X141853000Y-77230300D02*
X130272000Y-77230300D01*
X141908000Y-77175800D02*
X141853000Y-77230300D01*
X117624000Y-99353100D02*
X117386000Y-99353100D01*
X117624000Y-99353200D02*
X117624000Y-99353100D01*
X117658000Y-99387500D02*
X117624000Y-99353200D01*
X118545000Y-99387500D02*
X117658000Y-99387500D01*
X112282000Y-99353100D02*
X110500000Y-101135000D01*
X117386000Y-99353100D02*
X112282000Y-99353100D01*
X111746000Y-113777000D02*
X109124000Y-113777000D01*
X112523000Y-113000000D02*
X111746000Y-113777000D01*
X113500000Y-113000000D02*
X112523000Y-113000000D01*
X127318000Y-83012400D02*
X127730000Y-82600000D01*
X126194000Y-83012400D02*
X127318000Y-83012400D01*
X109124000Y-114620000D02*
X109124000Y-113777000D01*
X106416000Y-117327000D02*
X109124000Y-114620000D01*
X105651000Y-117327000D02*
X106416000Y-117327000D01*
X102978000Y-114654000D02*
X105651000Y-117327000D01*
X102978000Y-114125000D02*
X102978000Y-114654000D01*
X108500000Y-113153000D02*
X108500000Y-112637500D01*
X109124000Y-113777000D02*
X108500000Y-113153000D01*
X109452000Y-110000000D02*
X107500000Y-110000000D01*
X109452000Y-111233000D02*
X109452000Y-110000000D01*
X109333000Y-111352000D02*
X109452000Y-111233000D01*
X109214000Y-111352000D02*
X109333000Y-111352000D01*
X108500000Y-112065000D02*
X109214000Y-111352000D01*
X108500000Y-112637500D02*
X108500000Y-112065000D01*
X128195000Y-110152000D02*
X128195000Y-110152500D01*
X132600000Y-105748000D02*
X128195000Y-110152000D01*
X132600000Y-104415000D02*
X132600000Y-105748000D01*
X134325000Y-102690000D02*
X132600000Y-104415000D01*
X134325000Y-100500000D02*
X134325000Y-102690000D01*
X102978000Y-111805000D02*
X102978000Y-114125000D01*
X103032000Y-111750000D02*
X102978000Y-111805000D01*
X106958000Y-103542000D02*
X107533000Y-102967000D01*
X109365000Y-101135000D02*
X109862000Y-101135000D01*
X107533000Y-102967000D02*
X109365000Y-101135000D01*
X106958000Y-103542000D02*
X107533000Y-102967000D01*
X99397500Y-103875000D02*
X102977500Y-103875000D01*
X99397500Y-114125000D02*
X102977500Y-114125000D01*
X102977500Y-114125000D02*
X102978000Y-114125000D01*
X145300000Y-74985000D02*
X144750000Y-74985000D01*
X144750000Y-74985000D02*
X144200000Y-74985000D01*
X103638000Y-69500000D02*
X107180000Y-69500000D01*
X128195000Y-110152500D02*
X128195000Y-110842000D01*
X103570000Y-92497600D02*
X103570500Y-92497600D01*
X103032000Y-103930000D02*
X103032000Y-105090000D01*
X102978000Y-103875000D02*
X103032000Y-103930000D01*
X102977500Y-103875000D02*
X102978000Y-103875000D01*
X102953000Y-111750000D02*
X102992000Y-111750000D01*
X101709000Y-110506000D02*
X102953000Y-111750000D01*
X101709000Y-107461000D02*
X101709000Y-110506000D01*
X102920000Y-106250000D02*
X101709000Y-107461000D01*
X103032000Y-106250000D02*
X102920000Y-106250000D01*
X103032000Y-105090000D02*
X103032000Y-106250000D01*
X103032500Y-105090500D02*
X103032500Y-106250000D01*
X103032000Y-105090000D02*
X103032500Y-105090500D01*
X101068000Y-69500000D02*
X103638000Y-69500000D01*
X101068000Y-69500000D02*
X101067500Y-69500000D01*
X102992000Y-111750000D02*
X103012000Y-111750000D01*
X103012000Y-111750000D02*
X103032000Y-111750000D01*
X103032000Y-111750000D02*
X103032500Y-111750000D01*
X102992000Y-111750000D02*
X103012000Y-111750000D01*
X103012000Y-111750000D02*
X103032000Y-111750000D01*
X134962000Y-100500000D02*
X134325000Y-100500000D01*
X134962000Y-100500000D02*
X134962500Y-100500000D01*
X151048400Y-99135900D02*
X150887500Y-98975000D01*
X152423100Y-99135900D02*
X151048400Y-99135900D01*
X150887500Y-98325000D02*
X150887500Y-98975000D01*
X110389200Y-92678300D02*
X110389200Y-92862600D01*
X111000000Y-92067500D02*
X110389200Y-92678300D01*
X108503000Y-92862600D02*
X110389200Y-92862600D01*
X113186000Y-93259500D02*
X113186000Y-93497600D01*
X112789000Y-92862600D02*
X113186000Y-93259500D01*
X110389200Y-92862600D02*
X112789000Y-92862600D01*
X121500000Y-100567500D02*
X121499800Y-100567700D01*
X120888000Y-99955200D02*
X121499800Y-100567700D01*
X120888000Y-99387500D02*
X120888000Y-99955200D01*
X120000000Y-102068000D02*
X120000000Y-102402000D01*
X121500000Y-100568000D02*
X120000000Y-102068000D01*
X121499800Y-100567700D02*
X121500000Y-100568000D01*
X106957500Y-103542500D02*
X106958000Y-103542000D01*
X120000000Y-102402500D02*
X120000000Y-102402000D01*
X108500000Y-107362500D02*
X108500000Y-107362000D01*
X107500000Y-107362500D02*
X107500000Y-107362000D01*
X108500000Y-107362000D02*
X107500000Y-107362000D01*
X107500000Y-104085000D02*
X106958000Y-103542000D01*
X107500000Y-107362000D02*
X107500000Y-104085000D01*
X148862500Y-112550000D02*
X148862500Y-113500000D01*
X141591000Y-110842000D02*
X139943700Y-110842000D01*
X139943700Y-110842000D02*
X128195000Y-110842000D01*
X150084300Y-99128200D02*
X150887500Y-98325000D01*
X148508200Y-99128200D02*
X150084300Y-99128200D01*
X148405000Y-99025000D02*
X148508200Y-99128200D01*
X150887500Y-97675000D02*
X150887500Y-98325000D01*
X150552000Y-108994300D02*
X150552000Y-106712500D01*
X148862500Y-110683800D02*
X150552000Y-108994300D01*
X148548800Y-110683800D02*
X148862500Y-110683800D01*
X147500000Y-109635000D02*
X148548800Y-110683800D01*
X146000000Y-110385900D02*
X146000000Y-111000000D01*
X146749100Y-110385900D02*
X146000000Y-110385900D01*
X147500000Y-109635000D02*
X146749100Y-110385900D01*
X140399800Y-110385900D02*
X139943700Y-110842000D01*
X146000000Y-110385900D02*
X140399800Y-110385900D01*
X154075000Y-111871900D02*
X149030700Y-111871900D01*
X155543500Y-113340400D02*
X154075000Y-111871900D01*
X155543500Y-113848500D02*
X155543500Y-113340400D01*
X156195000Y-114500000D02*
X155543500Y-113848500D01*
X148862500Y-112040100D02*
X149030700Y-111871900D01*
X148862500Y-112550000D02*
X148862500Y-112040100D01*
X149030700Y-110852000D02*
X148862500Y-110683800D01*
X149030700Y-111871900D02*
X149030700Y-110852000D01*
X150887500Y-97025000D02*
X150887500Y-97675000D01*
X117386000Y-98157600D02*
X117386000Y-99353100D01*
X119406000Y-96137500D02*
X117386000Y-98157600D01*
X123398400Y-96137500D02*
X119406000Y-96137500D01*
X134745000Y-96137500D02*
X123398400Y-96137500D01*
X125173000Y-76125000D02*
X125100000Y-76125000D01*
X147463300Y-97025000D02*
X150887500Y-97025000D01*
X145865000Y-98623300D02*
X147463300Y-97025000D01*
X145865000Y-99025000D02*
X145865000Y-98623300D01*
%TD*%
M02*
