M48
; DRILL file {KiCad 9.0.0} date 2025-03-28T21:29:49+0200
; FORMAT={-:-/ absolute / inch / decimal}
; #@! TF.CreationDate,2025-03-28T21:29:49+02:00
; #@! TF.GenerationSoftware,Kicad,Pcbnew,9.0.0
; #@! TF.FileFunction,Plated,1,2,PTH
FMAT,2
INCH
; #@! TA.AperFunction,Plated,PTH,ComponentDrill
T1C0.0079
; #@! TA.AperFunction,Plated,PTH,ViaDrill
T2C0.0118
; #@! TA.AperFunction,Plated,PTH,ComponentDrill
T3C0.0315
; #@! TA.AperFunction,Plated,PTH,ComponentDrill
T4C0.0394
; #@! TA.AperFunction,Plated,PTH,ComponentDrill
T5C0.0591
%
G90
G05
T1
X4.0315Y-3.0709
X4.0315Y-3.1102
X4.0315Y-3.1496
X4.0787Y-3.0709
X4.0787Y-3.1102
X4.0787Y-3.1496
X4.126Y-3.0709
X4.126Y-3.1102
X4.126Y-3.1496
X4.1732Y-3.0709
X4.1732Y-3.1102
X4.1732Y-3.1496
X4.4297Y-2.4685
X4.4297Y-2.5118
X4.8858Y-2.9262
X4.8858Y-2.9734
X4.8858Y-3.0207
X4.8858Y-3.0679
X4.9252Y-2.9262
X4.9252Y-2.9734
X4.9252Y-3.0207
X4.9252Y-3.0679
X4.9646Y-2.9262
X4.9646Y-2.9734
X4.9646Y-3.0207
X4.9646Y-3.0679
X5.6772Y-2.9522
X5.7205Y-2.9522
T2
X3.9512Y-3.0011
X3.9841Y-3.0045
X4.1242Y-3.3548
X4.1663Y-2.9421
X4.2048Y-4.5705
X4.2131Y-3.2693
X4.2213Y-2.9667
X4.2477Y-3.0753
X4.2748Y-3.1172
X4.3504Y-3.2283
X4.3844Y-4.2724
X4.4493Y-2.4041
X4.4575Y-3.6331
X4.473Y-3.3164
X4.4916Y-2.5522
X4.5153Y-2.8259
X4.5219Y-2.4611
X4.5245Y-3.065
X4.5265Y-2.3606
X4.5494Y-3.425
X4.5769Y-2.6424
X4.6156Y-2.7489
X4.6187Y-4.2013
X4.6313Y-3.3049
X4.6331Y-2.9524
X4.6337Y-4.4673
X4.6373Y-2.8448
X4.6483Y-3.0354
X4.7276Y-3.0599
X4.732Y-3.8769
X4.7516Y-3.0866
X4.8582Y-3.7849
X4.9683Y-3.2682
X4.9911Y-2.7968
X5.0552Y-4.546
X5.0894Y-3.0517
X5.0969Y-4.0973
X5.1031Y-2.9331
X5.1094Y-3.3396
X5.1214Y-3.1471
X5.146Y-3.0154
X5.1636Y-2.8685
X5.1914Y-3.304
X5.1915Y-3.5351
X5.2222Y-2.3606
X5.2396Y-3.9307
X5.2459Y-4.0519
X5.2535Y-3.7468
X5.3139Y-4.4691
X5.321Y-2.8777
X5.3573Y-3.1456
X5.3893Y-3.8627
X5.3955Y-3.3192
X5.4405Y-3.9828
X5.4491Y-3.6354
X5.4502Y-3.1271
X5.4568Y-3.1684
X5.4608Y-3.8984
X5.5104Y-2.9174
X5.5311Y-3.6591
X5.5328Y-3.2497
X5.552Y-3.364
X5.5869Y-3.0384
X5.6033Y-3.0866
X5.6506Y-3.5236
X5.6682Y-3.9985
X5.6754Y-3.2065
X5.7022Y-2.8534
X5.7264Y-3.198
X5.7561Y-2.8858
X5.7668Y-4.1656
X5.767Y-3.743
X5.7684Y-2.9909
X5.7881Y-4.4805
X5.7905Y-4.2364
X5.7916Y-3.1496
X5.8278Y-2.9776
X5.8389Y-4.3994
X5.875Y-3.8649
X5.9237Y-3.6413
X5.9272Y-4.2013
X6.0009Y-3.903
X6.0015Y-2.8621
X6.0198Y-4.4822
X6.0809Y-3.2585
T3
X4.4685Y-4.4488
X4.5472Y-4.4488
X5.3118Y-4.5472
X5.4118Y-4.5472
X5.5118Y-4.5472
T4
X4.7661Y-2.6378
X4.7661Y-2.7378
X4.8661Y-2.6378
X4.8661Y-2.7378
X4.9661Y-2.6378
X4.9661Y-2.7378
X5.0661Y-2.6378
X5.0661Y-2.7378
X5.1661Y-2.6378
X5.1661Y-2.7378
X5.2661Y-2.6378
X5.2661Y-2.7378
X5.3661Y-2.6378
X5.3661Y-2.7378
X5.4661Y-2.6378
X5.4661Y-2.7378
X5.5661Y-2.6378
X5.5661Y-2.7378
X5.6661Y-2.6378
X5.6661Y-2.7378
X5.7661Y-2.6378
X5.7661Y-2.7378
X5.8661Y-2.6378
X5.8661Y-2.7378
X5.9661Y-2.6378
X5.9661Y-2.7378
X6.0661Y-2.6378
X6.0661Y-2.7378
X6.1661Y-2.6378
X6.1661Y-2.7378
X6.2661Y-2.6378
X6.2661Y-2.7378
T5
X5.7343Y-3.5236
X5.9528Y-3.5236
X6.5157Y-3.5236
X6.7343Y-3.5236
M30
